P2
50 100
65535
17767 9158 39017 18547 56401 23807 37962 22764 7977 31949 22714 55211 16882 7931 43491 57670 124 25282 2132 10232 8987 59880 52711 17293 3958 9562 63790 29283 49715 55199 50377 1946 64358 23858 20493 55223 47665 58456 12451 55642 24869 35165 45317 41751 43096 23273 33886 43220 48555 36018 53453 57542 30363 40628 9300 34321 50190 7554 63604 34369 62753 48445 36316 61575 6768 56809 51262 54433 49729 63713 44540 9063 33342 24321 50814 10903 47594 19164 54123 30614 55183 42040 22620 20010 17132 31920 54331 1787 39474 52399 36156 36692 35308 6936 32731 42076 63746 18458 30974 47939 
16635 9978 57002 49978 34299 42281 60881 16358 61445 49468 46972 51092 25973 4056 5566 43105 35977 59897 44892 9915 46760 15513 46607 16533 22449 13803 58609 20659 32261 24047 3063 48896 34025 60065 33338 2789 36810 28683 19147 32720 12616 583 18276 38589 4639 23843 16158 40616 18204 61051 50532 64965 11028 31603 15962 33477 45406 9035 54137 12131 33083 57200 61028 1572 51729 28830 4361 23004 57514 23508 55724 4594 24091 8464 43183 28731 32307 59341 3811 50512 54856 54343 49941 348 20411 367 33826 281 9402 22427 12413 42485 14091 7905 44058 284 36735 48419 23288 28713 
6392 13476 33307 30483 21941 10954 59214 54248 4760 63026 39224 59616 51833 23629 59965 6708 23996 28255 6990 33399 50682 19403 10348 64773 27308 54406 65057 64043 37290 22810 27221 43682 36286 60528 8629 58227 5947 2308 46940 10707 65334 20628 4787 51631 44258 64752 58340 2718 27471 65330 36117 12617 19197 46466 11854 46505 35336 11376 45012 7090 34186 6697 50772 4936 1690 59402 63164 7637 61710 44568 18344 61508 65196 23131 47603 43918 22348 40407 46637 49819 40201 17218 62437 59398 63684 8755 40367 33485 20131 19844 40575 54317 26541 25812 59254 28231 19678 56882 35868 15852 
35914 54212 11824 35574 11808 59427 13957 34156 34299 60594 18439 8964 12276 15340 2827 10425 24096 43194 43910 44227 63038 18949 33009 24044 44761 26727 52275 64439 18073 22608 14755 53987 11284 26579 24025 23092 20471 37982 57248 54770 33040 10152 63734 45317 25492 1025 55742 49588 44220 34116 28280 41722 53065 61289 230 32291 22480 52506 31194 40553 9578 45950 29004 20862 6993 53029 43955 27464 25476 35667 16698 58516 45819 14897 38297 5776 15922 28503 55364 60142 62619 18108 36329 50149 13861 36559 16904 36341 23529 48098 11358 33107 28512 40362 53970 35506 27856 32389 62970 53332 
2520 14133 46312 48340 29030 19074 54116 44952 47577 43944 39559 44661 62053 10352 29274 10378 46911 46178 46720 4905 28740 58078 38012 57253 32905 26446 27223 60761 58835 24657 48557 61356 38790 29333 44160 2284 48407 32740 47237 30449 11148 21260 9574 7665 31612 38848 18044 12987 19490 64764 17892 48230 57306 55905 39947 24675 16815 1634 19900 10115 26292 2921 5935 65082 32255 50095 1831 15126 17299 49068 45575 28447 4792 55149 36113 36404 28461 54157 49391 47951 53385 1748 30646 45155 57653 5057 4295 8932 6692 24195 19047 32984 27117 24982 32530 59372 9541 34361 8962 26840 
17893 54538 55288 22685 44151 25865 59089 7077 14486 42945 55028 2335 44693 20138 47490 36810 25196 51785 45742 31888 10445 64790 64872 37562 24236 31866 31398 33778 692 40360 60618 18585 29362 50370 41271 7978 10699 34824 15055 25185 12233 4547 27520 56926 24686 9475 28200 49882 61260 8407 16234 6169 7661 15570 43731 31897 47436 9593 139 48128 49954 60758 1178 13780 45592 42449 21758 56292 11737 36813 15941 23971 41361 43462 15361 511 52937 43562 50393 48661 51969 1091 54831 59630 16661 33026 25991 64097 42620 26131 46690 27038 21353 47868 40818 1409 24781 62577 57701 36518 
33854 8107 60489 9679 51569 10315 10190 38970 53877 60583 22095 40310 61674 11390 34404 12799 44417 60395 11361 21501 20990 58051 48539 42343 40383 23821 43753 65164 20862 35918 36146 54717 44025 31100 64396 30058 41415 9051 3492 29756 4098 25588 4530 237 36978 38934 13036 15859 33793 24397 37360 54784 16912 20363 31591 57295 44185 9808 56923 65047 45727 27534 54228 24216 58634 53089 54275 34513 62140 57767 64269 702 17819 3263 939 54798 42197 13976 5121 10454 38373 42482 65238 55286 62845 31294 47045 41494 41102 38433 41006 21293 431 29698 45510 59065 17251 34249 28042 13855 
26480 26775 14558 44300 30038 15497 33562 6699 29473 38683 17153 2311 15629 16856 57597 12939 48150 39106 54433 23716 12003 29903 45010 12434 59602 24984 5963 11317 59233 34005 25173 20177 60780 39731 64477 25282 55228 32503 31981 19166 5651 49135 21477 21280 455 13538 34219 48605 52644 23117 6785 64648 53020 51795 11546 47086 11243 17510 58404 4940 51515 18041 25118 46760 57772 24059 6506 47464 56563 38488 1094 62214 22087 22571 17958 22542 36109 52178 5611 23218 9759 12396 22330 62779 64192 33876 44330 9899 51386 37198 14840 37366 55239 39958 18590 47475 64017 25096 29403 55044 
63584 30498 51722 20135 53069 4145 42677 23643 56323 48288 46861 546 60685 3655 63325 59341 37531 42119 3704 23382 13781 18544 60748 3484 58502 13802 50959 56984 38898 14827 46492 36947 45325 32679 57082 32858 36824 34224 56501 27611 16976 37826 28157 12125 41481 25946 5930 13477 2530 9635 36859 16311 28179 32071 19796 21146 45873 5219 12594 19235 20046 59086 56182 65371 26229 47729 32694 63053 16417 23659 25128 33393 61486 53285 45519 37431 13696 51449 50908 16226 61084 22231 32537 23728 54302 52333 44874 34639 57553 57468 53875 12063 51018 44521 11899 11712 26714 44593 9229 43131 
2716 34358 10989 64202 22107 56508 36098 35803 42421 21470 52029 37970 43702 19031 61698 32468 5828 41036 1572 63381 32968 55447 9909 18450 34432 21808 30162 61147 865 39392 38742 3581 8214 49731 2248 30321 40703 38346 589 17589 59816 52618 55559 37982 6113 51721 4915 11942 27221 6487 9787 60189 61934 19696 13103 30830 41504 43266 26441 42369 17122 65184 45951 25336 49379 48199 55657 24547 21009 56246 42136 15289 43329 32159 53272 49442 18344 58187 61384 45565 64674 5636 40218 61072 25332 53321 26366 1301 31051 52808 43670 48173 52456 24085 7973 36299 6748 63631 60846 27757 
54341 37446 43047 32134 4069 30783 16041 22413 23434 11889 2442 22572 17525 42660 18108 42858 30446 44474 44159 61497 31746 22293 44135 18666 46379 52108 54966 53127 50203 50276 15349 39009 22187 58396 5607 26256 23643 21648 48670 47077 33538 51112 4113 51063 28237 22221 28385 58683 1159 7008 54644 32906 29302 33243 51572 10145 19816 41002 63272 4483 25743 13085 43492 47930 5945 49100 8650 29588 5212 57320 11129 38750 42897 15242 24278 5598 37463 52663 64281 38623 59672 53389 5993 23438 21097 57565 33583 40913 33032 31319 45396 58775 44405 23353 41169 50350 6917 49819 14403 12129 
41604 25532 50880 18965 40775 9622 24563 12702 62285 23308 51325 56421 11161 57318 14323 32258 49348 47906 7635 16844 13690 53032 10083 58095 10849 51252 42909 17766 35535 57312 29895 11603 17309 15239 30568 58084 24861 55131 5250 21611 12903 56576 12496 24065 48358 26820 56323 32170 9190 63959 49014 22880 51455 59097 15439 62304 44813 58349 14534 14813 50125 44429 26416 1898 59669 56985 59982 18994 46580 65233 40605 59484 56273 53102 18013 39095 14386 8800 5730 23576 7223 54744 46457 58678 48306 61896 55446 27583 54709 4444 42396 39299 48874 3277 41197 43007 60262 35644 62001 41306 
35341 37071 35254 26078 24637 53267 65173 39023 62068 5367 62599 3755 60112 43520 62434 42882 39881 52344 4929 29054 56789 47326 2817 40127 50603 44015 17598 45329 14123 14063 21099 49464 51134 56354 10006 10235 44085 9643 49258 40617 15011 46322 44373 9587 24306 41271 52469 64187 28079 57398 27706 19332 39188 30523 59459 24255 9002 11521 4048 23125 25585 25148 7053 11183 15966 17059 21419 60051 26703 5141 35133 41714 51463 13970 51301 10234 55241 38234 8885 17784 30096 36591 37117 3749 1579 31040 28004 10581 42562 32053 33707 2611 57201 40760 13794 7631 57820 35213 2146 18987 
40355 37279 60701 26282 51249 46466 36516 40954 19164 45402 58739 49260 16457 30320 53009 18036 61360 15478 28618 38386 47531 62325 40997 39196 37549 54792 46827 29833 24469 48973 48820 64824 20717 43985 25571 6430 24915 62087 47385 44079 41953 40588 27804 58411 5372 15277 10911 1196 30755 39529 39583 12750 36318 15044 51946 8332 4300 33237 38165 28770 16675 21450 28058 37392 65435 53629 43822 24815 50181 25671 3358 26598 723 31162 19473 6095 46440 30385 7292 11659 4378 46875 24410 40697 61919 10820 49029 684 44058 21658 29454 60733 43108 57512 32589 43008 45606 10875 2287 30251 
36547 5645 56849 37270 36808 10787 43366 17712 41172 50658 29371 45550 31997 53781 20711 28380 64602 4204 29064 43124 25863 58518 38321 3435 50495 5374 46443 30565 16249 48730 60816 52796 54376 52129 24531 25648 62916 2361 43360 38552 53019 7195 18567 19480 60977 39278 47860 60043 43483 11389 37631 3810 4371 10416 7245 54866 15790 53689 19895 32039 36883 15175 19300 25723 1769 43831 51371 64685 46192 29195 37702 33675 36391 56269 53155 31832 30011 35479 26339 7958 46868 63970 11768 51240 8850 19014 40570 24640 7167 60466 56679 44050 10105 10443 4238 11874 54274 55609 11024 34930 
19269 48726 3069 55660 39459 56224 21956 3934 26168 48295 11893 7500 46729 23661 58740 55579 42675 33775 14683 49842 28705 5826 28357 38810 16270 32595 50685 5008 22668 61709 39939 41937 44899 43008 32061 18822 33697 54017 22756 59865 36776 34649 1829 17969 58311 60570 8012 35450 28809 22695 19757 57514 28522 48114 30788 44792 15173 15937 49800 37841 12110 24203 14243 57009 1676 46304 10295 35373 34786 33052 29702 6026 2165 31531 23996 60476 26565 32008 30391 55374 54704 50148 47352 17690 32726 12605 62482 47899 28542 46746 20204 40653 5414 34447 32126 7090 15216 42422 42463 50002 
9938 6629 56028 12103 38160 14488 7044 64726 46497 37435 54564 35665 22047 36381 53355 54773 48986 50301 37136 11992 31511 57340 52645 36925 26252 19236 44015 41468 61658 20942 25934 6060 27571 16426 18163 196 30915 25207 64922 11876 62642 53950 47541 19153 24795 35360 8390 8245 20125 45526 20238 51636 37331 7347 23026 63583 26583 1505 39515 22705 22448 65449 28765 50019 16339 46929 50215 47254 6600 49601 59130 3707 38016 41135 22860 62811 10959 31251 5521 31084 11241 25759 17185 48572 33106 40211 46619 59690 41716 20598 16859 64164 20511 45625 48648 36851 27018 33327 18569 33618 
17393 12164 37325 55409 53299 60186 52684 64259 25901 58205 29807 37142 18428 46992 20179 51535 21667 1262 45689 63384 21861 62548 62012 42372 42637 45124 13687 4119 12916 32257 37738 30309 44421 9527 20182 32184 4177 7330 30907 30078 0 60715 1685 18428 42171 21864 4427 63839 23126 50116 61687 44987 47129 58163 21824 24230 37752 35511 28350 50668 2232 552 15441 46653 10079 35623 13302 14257 42953 44209 44335 42953 39388 46020 61382 16024 2348 273 14327 25475 50390 10478 4926 31983 3105 26750 56213 40857 62262 19027 25989 64494 19579 41430 45612 29659 11517 58914 43916 54471 
37587 22715 31888 11440 3200 27734 27464 5548 28008 41791 31023 12862 52269 35950 44845 55374 62700 35522 30696 59426 54550 56685 58385 8593 32580 38461 38252 44097 31839 16632 33032 3890 39348 64921 15330 42548 27119 42794 48096 55127 19049 13584 2453 5782 49534 47298 61157 46698 17285 26317 40589 6299 17466 33438 14892 50046 6363 53145 28608 38202 4241 61640 42092 43589 61025 57423 20601 22609 34681 3162 12200 53731 16746 14654 59513 744 61952 55134 47442 13701 15915 22495 20000 33382 55933 34893 17892 62296 22502 46500 34962 26743 42605 11519 4797 38094 3406 25398 60703 38087 
28560 7368 26282 45306 22022 20260 46050 18438 9858 27957 32140 25774 50452 52140 59156 40850 21497 11512 37610 43999 58013 7037 5207 35082 18556 10004 7640 21962 35402 2808 60049 63963 10176 20796 43733 32198 41056 24248 50636 50914 52205 17240 11152 37121 3845 4772 12435 25342 16285 50046 3806 8762 57083 9013 43844 10103 19017 51484 32065 54419 54292 26578 52846 64468 47374 31044 31130 22894 55292 16231 8273 41961 33471 19425 13546 37316 24198 25982 62659 40483 10492 929 49245 2039 9942 27553 12142 28959 13501 44207 17842 2258 5249 5153 1190 52624 36197 32321 9982 25953 
48552 18255 2378 16487 37681 15924 53804 61879 41906 50927 36826 52398 51856 20535 54437 61798 48088 1043 25221 61589 45250 43063 63847 50500 48216 65038 37588 18877 31823 47570 44830 14839 290 47208 31326 37971 63133 19594 34314 39503 4985 5604 26366 56841 26139 15267 53103 8691 16311 12788 4744 61561 55852 3056 46525 38532 2558 18577 57410 34381 612 36704 49220 902 18377 15010 38873 15974 34605 7651 55477 39590 13255 16307 30896 39394 31575 18463 48085 47886 31252 52829 43911 21568 55885 24901 60100 58443 43478 51974 27288 44090 23143 10972 44992 41520 25983 18329 57494 60588 
25980 47435 34642 39235 63743 2 13093 29782 18466 61178 12132 49718 48472 56043 5750 38821 15408 314 31729 58887 52289 59017 37441 9896 4454 16898 51416 30437 35227 43374 25489 61208 25273 60131 34907 23480 60134 48001 53262 13064 43643 65394 62782 26579 55902 2996 65401 5774 3310 31594 64661 55599 25075 36567 65495 29529 53465 51375 59966 23156 29213 19919 18828 54487 14515 53736 12431 9113 36201 158 22177 14308 16 19423 40888 55918 22419 40753 61693 25729 6811 60818 15793 31886 31849 15752 61416 19778 1592 55846 42935 30805 10230 61763 19756 24745 49963 32188 33858 20628 
32346 56035 34937 32362 9922 10289 22745 32341 51042 18902 58070 57853 14184 8327 24203 46034 24080 20083 276 25672 10394 43211 56477 20624 39439 10698 45369 23866 42886 13691 44495 9696 4190 13896 42058 14112 24185 64803 46453 9691 18169 38987 2008 32354 47315 26211 12852 5859 46295 13128 31531 56689 56340 22472 11777 30243 33170 57146 54109 10520 5301 33068 20216 9491 46964 62275 23603 5613 61542 4520 15304 14176 43507 17312 46530 25286 43524 59382 31145 24283 6974 62676 15436 63314 19613 27213 28021 52783 18823 16595 63304 24124 49663 17984 33615 31092 14723 57218 36705 10730 
61738 52010 24906 39709 3786 5900 64996 47310 65282 30605 6057 6720 27746 21493 4499 47359 48706 32520 34606 1993 49115 32374 26117 33243 50359 59732 64335 65082 51414 35504 10276 47616 21978 35182 21790 25765 41082 21250 7539 40828 51855 13597 47549 14065 35090 52048 61424 18261 19032 30495 20254 2612 62869 46372 35855 47692 40568 34654 47239 26447 4622 57515 8527 26601 27162 30317 52366 2708 51567 59905 43537 37887 7966 25550 51952 43057 12062 47841 61318 31094 12800 16036 33706 10133 62408 4025 57826 37441 38679 39529 63888 43302 31508 6879 4367 58670 37197 56733 61379 23228 
51102 39380 61115 59069 64930 47532 36590 11456 29837 32372 42550 42637 48408 10721 52770 45281 14746 45060 17186 53426 19053 15538 31192 50562 22417 35559 43696 59614 26756 39539 17307 12322 13383 12886 5855 12777 60418 42445 24233 24719 9281 1248 1820 57690 11969 54591 37435 26715 34115 54621 14605 53169 4623 45797 38195 27040 15820 16355 21119 42576 55895 38426 54899 3742 51312 60754 16520 46195 37664 40753 5378 46945 42001 7199 39099 53970 61790 10998 15150 30369 83 29755 18002 4706 10017 56197 31747 25837 7017 52866 2878 62912 25756 57777 1118 11532 52995 17638 57727 25123 
58392 63106 6533 34857 4769 45632 23292 1023 56631 38442 31392 56714 2661 49395 61421 12678 40056 27632 38516 47073 14962 41394 44449 40718 33635 45568 52250 21094 63206 44442 46218 56062 42012 52751 25384 46781 32847 48676 47804 23942 21582 13660 15121 24243 63055 11006 36922 37576 38638 9902 19113 53600 51296 63563 28782 19395 43595 15496 40489 41265 59938 21171 31792 36414 8386 57176 17659 41234 40316 65463 65176 61898 13588 14761 20605 11107 25767 57527 48683 64405 1893 2261 52469 53189 288 15715 7048 43883 31212 47538 19612 25614 3173 51404 62029 11560 43044 14152 52794 17824 
14080 52434 14186 27668 1660 34792 38775 27427 26783 21923 26297 28677 24184 13230 16330 24472 28946 23379 2819 60158 5381 22431 20236 8554 8300 16729 20114 51344 30882 7372 3633 44962 59807 17819 7094 61467 52611 45869 23358 13859 2256 49655 42536 26440 62886 58866 50912 26296 16709 53731 20918 22090 10627 41154 30645 18927 57884 50759 4735 23230 58132 8368 2656 52403 26188 9750 48334 13263 55619 6156 27122 57876 55812 4122 18780 53162 62989 4157 13922 14162 57888 34840 36253 2979 10458 1362 21906 2806 52121 26642 26036 44717 35010 28692 31584 61198 38442 14382 8926 28526 
20539 36048 20866 10815 40171 39646 63977 37624 43803 12363 51786 36156 47203 22503 39135 57661 23865 61042 60468 10451 22148 20968 55168 57158 49661 21217 52821 22567 35599 61747 51093 56138 32259 6423 1417 6894 46070 65394 44518 24337 12221 30769 60493 59424 53272 34093 51550 11602 29599 46482 22053 51747 1914 11685 43369 51575 32902 30654 8607 2966 26865 59700 59104 59125 588 60522 483 46658 60380 45002 5459 7066 10235 417 954 63507 34510 52504 9573 64109 33450 31626 50320 35365 43312 28153 21404 10678 58808 30011 13644 20137 24176 7213 13726 24764 2199 14210 5886 62579 
59212 11345 4109 3911 11762 5064 1882 46272 57568 11456 44845 25483 43082 29629 60848 20858 57783 16716 31537 51055 46728 45181 5656 5368 52394 19383 30132 54593 33593 36018 51637 27269 47363 55746 31180 59126 60810 33062 39862 52843 44518 19172 12790 22065 48801 8102 42923 41048 24818 8924 26567 6010 54106 32224 11378 40964 51607 41510 30022 19664 11992 16123 46933 59356 6333 12577 52946 1608 45639 27272 54451 24622 46444 1705 46687 29710 9807 24074 5222 34625 32999 31790 40636 21569 64014 52014 62533 50085 27989 27019 4213 39981 43142 51146 33801 49476 63723 21211 51084 43826 
48484 39999 2912 29392 41704 49599 59102 51511 8138 64325 20600 41137 30579 61236 62706 29057 47715 59703 13606 10168 21187 17819 50149 64329 3429 18415 48269 1616 39626 33817 45442 22574 8280 48355 51967 49984 32418 45533 35959 40556 44322 56560 16157 9365 52260 13327 38422 34439 7495 52028 44607 28682 4311 29221 27475 7740 47636 10209 9356 21726 44026 54799 44301 52307 37618 30732 36755 4500 10729 7179 45057 55052 63739 61214 64417 50463 9006 37304 19367 16501 23796 63974 45183 28108 27659 7122 35848 9759 17331 45205 31486 61358 34468 10251 48129 6550 40983 19348 11050 51712 
26527 56107 41228 24730 51786 40110 9658 60792 11878 29025 11757 35674 27463 56940 63782 55123 64062 34095 64882 15858 13764 30832 11680 48232 41083 59809 54782 16530 13621 296 2707 40149 56404 43935 64879 42654 18509 9001 37910 30387 38026 49667 526 65490 41071 64308 55077 39597 32867 54423 55455 46631 19720 1599 29327 60803 61408 18573 11798 9494 18870 14505 49643 9738 58440 48986 52392 11414 57988 24766 41801 30478 8897 42327 30432 49968 41100 19973 24029 8431 8861 13949 55063 28581 15548 18854 23848 11421 37428 35646 20915 56298 50151 5022 500 43056 54008 52892 54470 46460 
12122 30735 11403 21019 7527 41835 5451 48627 61809 29480 57058 5134 43429 46585 33715 58978 65440 57563 4863 37332 27674 25778 28094 12289 30800 28594 55345 19272 15950 44279 197 28072 9479 11600 49091 17006 53435 54542 97 49708 18486 57155 54842 61916 38205 23021 55358 38109 15049 60221 9905 42723 20463 37999 55012 51263 1057 44822 4999 17007 23565 5196 45079 33044 16796 28634 50050 4696 17640 50147 54404 36126 41767 43711 32506 14436 1196 22328 52545 16245 17013 62450 58968 37476 34913 48445 23203 35970 27731 28203 52977 51296 33399 32520 18805 50196 61154 3319 54892 13258 
53467 43760 49384 29698 21935 16355 44134 23132 38683 31143 39377 55697 28057 32810 27637 62970 15719 50841 33404 43450 13508 20845 29210 46907 53365 48015 31567 48983 51335 20923 62241 39266 64684 46089 3428 21083 62444 47562 44215 35592 13169 18057 25753 41226 50867 53390 38660 1050 38695 6528 44500 52203 27373 8174 33575 15202 56190 65142 64185 41989 20530 60890 15719 19678 41443 19147 40761 38352 1173 19441 8408 14342 37498 34161 55568 22829 22015 28692 23879 60711 35220 2843 47378 62593 11017 15417 12259 1671 15024 10908 43660 35554 6262 59379 55232 47705 12990 30457 20521 14163 
49898 28929 28505 21860 63090 18537 44689 19570 47229 3032 14745 16913 5875 62123 13970 16893 12005 26229 18564 27029 37137 62225 62583 43399 56068 52279 25569 3523 17200 46090 17686 1563 9484 46192 23423 7038 64729 2577 26608 46423 5609 41353 63336 11485 37941 11771 28378 49946 38000 46942 11439 9602 43631 8486 53001 34164 60765 13034 37687 12429 59125 55373 13992 3073 36029 37416 10111 35223 39993 36720 16110 45602 12537 13910 57087 50478 25681 19929 34888 63682 1336 46327 7748 44967 54813 60749 13595 50042 8248 51282 62472 1837 41120 10928 4910 11613 48344 15021 46836 22801 
51741 62946 2868 64279 11321 59955 49221 37002 14349 18574 35148 15685 64901 42896 60652 54179 38110 8712 38685 46358 59994 35621 48195 35578 46550 53105 47192 29358 2590 28492 52160 54332 25903 55028 53075 37224 49447 36760 8690 63796 55334 43839 13945 54700 21199 9062 43343 59309 17774 16492 40131 12232 52114 22790 47811 33128 10359 29467 62486 12950 57959 49110 1746 18326 38602 54821 55550 22514 26045 64241 20774 15844 42544 34720 5008 63743 43782 48351 57517 61556 64843 32112 8252 51421 54903 56063 19013 65262 19994 15964 12676 12418 65074 14422 30744 38141 3707 20759 60655 29753 
19464 15893 45597 62008 50613 50605 60215 28859 33420 52196 24879 32727 18773 33132 18613 8140 23659 37626 7866 43654 53590 20543 56072 53129 34965 21280 25734 38673 42039 20853 2890 61503 36746 48487 57975 21824 33556 52655 50683 1440 39315 10027 34167 58088 43159 52780 692 1282 24871 8559 44936 12925 29102 35472 518 64067 56753 26252 37204 33256 47105 40094 29224 18316 23045 21663 40140 56601 8782 25287 58041 48098 35314 26673 40650 12937 13917 41343 14220 38788 49902 59156 51714 13468 29093 52232 11999 20310 12949 49204 53566 60054 23762 17254 12834 46808 38918 52974 37873 47700 
12726 30379 30262 48040 57052 5377 60978 5433 46720 9662 44222 31086 3282 30400 44554 32375 17096 56553 52685 30045 40221 40716 24564 63984 57970 37398 45256 31352 24837 17593 13517 37563 47972 43779 20067 39488 49156 15509 44922 30340 25171 23608 61426 28454 54008 40444 60829 5568 31462 47979 35614 6147 23159 60178 4595 15593 32040 49851 46946 56877 1909 60463 28904 49881 38706 48972 23834 22327 64481 3220 52667 24117 26828 48558 52571 15300 23466 47864 20868 54928 30307 56482 61076 53466 51124 135 3524 17629 49987 50470 8970 51896 45397 37875 36241 18567 21311 60075 40894 20256 
63295 28026 44373 24587 11048 31408 39887 34514 13737 60756 23907 44044 51702 19447 31975 37291 19582 35499 54920 4033 20433 63890 55929 294 36229 26635 18861 57540 21174 59756 12261 18934 22246 56634 43521 33294 22507 17873 2272 36244 13093 26179 14752 64795 45626 46727 36550 65209 16690 25934 3706 37123 24289 59636 37417 60518 20735 56279 52523 41909 50499 64784 60843 7209 55882 38829 40503 12853 56702 42775 49097 4259 3419 63850 3518 49045 45041 40069 48718 61732 467 52425 33319 24756 46525 5201 19739 1724 61480 6726 43633 46443 5974 38941 53652 61856 12234 28619 9174 3400 
5858 58271 7659 9277 56585 11177 58323 36091 51246 41505 32287 51714 28394 70 10934 9383 5271 30673 11107 1215 37399 54741 47658 43373 28146 35774 39694 40380 64393 48868 43780 4716 41603 51439 13993 32653 62616 6780 3208 48327 48286 35495 34505 11144 35565 45439 20528 40837 10577 31635 42052 47976 20840 24175 25814 48986 59949 65508 23830 58807 48840 2074 63523 24907 53513 11980 57560 50594 18761 60768 33385 1511 30727 2354 12655 757 47793 33183 41594 58370 64819 18110 40811 20123 42285 1089 3574 36699 1061 27404 29970 49901 29479 27957 9272 17456 39937 1297 2514 58698 
62065 35899 60209 27257 38253 7329 28014 20511 40512 4072 13345 39795 22182 54156 59919 64468 55245 63493 35631 56306 25361 65 40671 54840 28022 49944 6761 2423 51241 9275 61122 47770 45175 55795 9491 17892 63124 37505 38403 38101 41577 51749 12360 63760 40369 6743 62692 30079 4700 32787 20849 30062 32852 61521 19366 60874 45929 26127 63297 31634 35403 58883 13868 15042 49143 23360 32934 46731 60865 5802 19296 36907 57551 31657 35131 32384 38400 32287 62463 43101 65074 17777 7627 32390 13762 26993 27728 59691 53121 25489 25789 22988 18837 39657 38030 2444 63017 5428 49175 58347 
11230 2936 29718 3245 34593 64849 35630 7457 31600 32557 50558 31138 50334 58185 63528 64096 19643 25720 58251 7228 51209 18504 30216 4510 58162 2710 6954 55643 8138 56130 48454 19369 59066 12636 22614 28123 11949 58244 35580 43549 25266 20603 9151 10064 13252 7143 8625 32895 32863 1340 40123 18537 19845 4803 23047 12471 7513 30002 2578 15652 20596 51033 35021 14126 63669 57635 42249 10083 50344 12293 53632 10074 32896 62784 20138 46149 4391 28763 13508 37255 30104 53632 55792 49949 58435 13303 62420 413 43305 64998 16065 63901 50495 51086 12491 48629 43185 54740 58712 27993 
1498 46808 38067 34394 44056 58206 15007 48448 21433 28516 20167 51537 16612 10423 35950 9511 23726 32834 9924 1496 32297 25989 65397 17256 11539 12353 349 54725 1557 59061 17182 3055 40334 55250 37450 18854 47920 52457 1766 3817 15437 21933 55355 32049 32356 25769 41561 56083 58604 51485 57579 25365 11939 57440 42621 23478 4257 42971 12667 5815 36496 29850 8870 11294 19564 46320 30149 1948 33242 31915 5765 48679 53849 61120 15193 20669 21354 56754 11216 14422 42703 3259 39787 54642 60700 16872 12585 64957 59843 25252 5236 30804 55102 14107 42098 9130 60427 6711 11078 28133 
38627 16844 11277 26940 12428 26470 47609 33782 17688 58826 48204 60391 62085 22455 49498 57249 39328 62083 56671 33635 21799 61907 64439 11366 10478 41002 20496 5370 47713 31575 33503 20804 48419 44780 47744 60847 5714 29818 29094 23402 23108 11762 18258 19657 34218 2220 11371 8010 64303 2506 41645 20566 64413 40549 31932 9356 16015 52429 14726 63728 18468 48229 18997 1351 27474 1205 62198 33188 31023 25756 56591 54131 37519 9313 8253 6201 11533 19624 14211 10300 22130 55856 30866 21007 30869 62799 30363 46884 49692 45089 45077 2624 27783 64074 3975 55257 65279 637 22909 30767 
26394 13964 19362 63913 23277 27615 4578 34810 47239 18789 45110 3833 9109 10441 24841 39979 7704 55204 21327 57396 34758 868 60020 62541 64942 63995 52262 64686 64632 9635 29917 25490 23600 49279 23867 46877 11359 28445 16152 58598 47234 61262 62432 56344 6167 21737 30787 13871 11405 52114 5731 46163 52983 215 43168 52389 64210 29894 51539 63307 39530 15920 23261 63130 65200 47129 44471 11023 10038 60623 4085 57273 56350 981 48081 62517 22718 13332 10853 34124 65446 16584 14751 52893 16800 57920 39747 15474 22278 25750 13245 61808 41671 36507 59402 41335 18100 38338 52358 28138 
33425 56443 19875 24239 57425 2420 21221 14607 15752 32074 48731 15663 48658 63483 3020 65458 55867 42767 15397 12609 2982 28642 8882 44653 65149 2748 20452 17713 41086 7274 45852 8976 63717 191 33215 55606 2612 54436 4678 18364 20974 53409 34027 4097 51356 37048 4019 41687 14279 19416 54297 17261 48059 63179 61914 47672 391 16830 65386 41478 24104 45702 50454 22286 45893 18133 12356 48505 7034 17034 1334 28008 4908 35361 32105 56264 6873 36125 32416 21153 55541 21177 38414 38064 18820 34793 20201 19211 51623 20051 60689 10192 217 45607 32478 46110 63741 44834 29080 5239 
61869 30414 33247 1241 239 65353 57505 7113 35942 24385 28266 25947 45562 1144 64012 64382 35937 18677 18058 22025 38728 13211 32217 38945 58819 64695 19519 57024 43993 48599 62263 40326 13477 29974 41567 13717 29791 33537 20830 197 57922 49096 26145 37949 50240 24621 36795 20642 43298 54853 42667 16490 2529 9348 55435 61348 8507 9418 52836 52500 58018 49563 27291 5959 14001 3322 19676 43793 36859 40506 43990 29246 24066 4599 1659 8771 29220 38454 29413 6982 27772 6544 23472 30301 15892 13371 26113 24399 22790 13413 11363 15272 62976 38654 21231 11441 41977 40908 55234 13300 
15878 33689 42546 39945 38288 44205 48716 1973 17124 12593 8955 44896 19137 32428 9661 35029 45799 35774 59428 3053 49187 5255 18325 46627 43910 39557 58068 20351 14929 47767 33651 30807 15920 10662 5216 54208 54867 53932 56181 6455 989 65137 51351 20126 32029 61012 55155 12292 31250 49047 15346 14901 54303 33671 61528 32677 7692 54061 53028 22621 36292 21143 53429 52212 31805 58645 40884 21137 47042 31530 27592 48031 31131 13408 2622 63160 8884 57777 9916 40135 41289 25262 55036 30056 58934 51029 62733 1090 39554 50225 23712 10310 5832 11605 62522 37638 4714 37870 58775 51756 
3864 20831 34252 34995 34239 36874 32619 43124 29115 42536 17723 4868 2262 7223 34924 61196 58252 32121 62287 32270 16810 20463 42580 22643 32068 39566 60281 36782 11901 53520 23003 15765 8815 57255 50761 43055 28593 17844 20643 57708 60380 38366 62577 62643 45589 31965 58303 38306 64087 55054 5040 15361 9981 47621 38004 42049 21651 32749 13296 33552 20733 36299 49318 29549 28018 34543 7068 56611 52387 27711 48783 47232 541 45824 44339 46130 12254 37106 18900 10805 26625 23941 26166 36606 6026 64171 13120 27677 31384 26416 61230 52118 62715 45012 16131 25197 14019 23199 16272 870 
50910 65055 48102 51451 45344 26905 32045 57598 64012 50946 2867 25101 9351 29033 61707 15377 27668 9291 43054 59053 35707 38748 45635 32886 18224 61766 58083 32243 19429 8819 33114 4803 8339 15680 56254 53683 42586 22763 45745 41062 8173 48612 627 17524 12109 62334 32901 39778 6090 10420 33295 41797 49168 13394 9148 1857 9624 1695 34100 29053 10515 1678 33856 18854 17359 24574 7001 59945 47337 52746 35471 55511 35822 36098 7499 47931 32896 40401 22173 38986 50821 55468 15248 34453 3326 24396 36310 12950 26091 4875 42003 36606 6553 10323 55460 23912 34897 62461 18321 16699 
49671 53792 6674 19957 24354 14173 2353 57251 54574 24526 30701 39859 14459 45949 8777 17785 4809 45087 30736 30901 49962 7203 1971 56516 17527 57432 14892 52424 54357 33214 3587 38493 21470 10261 58450 45825 24435 60803 37540 13473 19794 2705 53333 34253 48655 62110 52038 53464 41661 17238 18829 26088 24442 20801 17068 41969 12697 31960 28857 1518 65174 32445 40011 21109 42706 32926 1398 1605 28193 38938 15079 47987 41643 2876 16704 24762 64986 3207 12691 41111 20445 31520 1663 44887 52321 18731 21320 65018 50692 50178 1001 50330 17087 41012 5903 59793 8402 7301 61399 36596 
