P2
100 150
255
151 72 1 0 0 0 0 0 0 0 0 0 0 0 0 0 0 0 0 0 0 0 0 0 0 0 0 0 0 0 0 0 0 0 0 0 0 0 0 0 0 0 0 0 0 0 0 0 0 0 0 0 0 0 0 0 0 0 0 0 0 0 0 0 0 0 0 0 0 0 0 0 0 0 0 151 72 1 0 0 0 0 0 0 0 0 0 0 0 0 0 0 0 0 0 0 0 0 0 0 
0 0 0 0 0 0 0 0 0 0 0 0 0 0 0 0 0 0 0 0 0 0 0 0 0 0 0 0 0 0 0 0 0 0 0 0 0 0 0 0 0 0 0 0 0 0 0 0 0 0 0 0 0 0 0 0 0 0 0 0 0 0 0 0 0 0 0 0 0 0 1 2 5 11 34 54 51 28 14 11 9 8 8 7 6 5 5 4 3 2 2 1 1 0 0 0 0 0 0 0 
0 0 0 0 0 0 0 0 0 0 0 0 0 0 0 0 0 0 0 0 0 0 0 0 0 0 0 0 0 0 0 0 0 0 0 0 0 0 0 0 0 0 0 0 0 1 2 5 11 34 2 2 2 2 2 2 2 2 2 2 2 2 2 2 2 2 2 2 2 3 4 6 10 18 28 36 36 31 25 21 19 18 17 16 15 13 12 10 9 7 6 5 4 4 3 3 2 2 2 2 
2 2 2 2 2 2 2 2 2 2 2 2 2 2 2 2 2 2 2 2 2 2 2 2 2 2 2 2 2 2 2 2 2 2 2 2 2 2 2 2 2 2 2 2 3 4 6 10 18 28 4 4 4 4 4 4 4 4 4 4 4 4 4 4 4 4 4 4 5 5 7 9 13 18 24 29 31 30 29 28 28 26 25 24 22 21 19 17 15 13 11 10 8 7 6 6 5 5 4 4 
4 4 4 4 4 4 4 4 4 4 4 4 4 4 4 4 4 4 4 4 4 4 4 4 4 4 4 4 4 4 4 4 4 4 4 4 4 4 4 4 4 4 4 5 5 7 9 13 18 24 6 6 6 6 6 6 6 6 6 6 6 6 6 6 6 6 6 7 7 8 9 11 14 18 22 25 28 29 30 31 32 33 32 31 29 27 25 23 21 19 16 14 13 11 10 9 8 8 7 7 
7 6 6 6 6 6 6 6 6 6 6 6 6 6 6 6 6 6 6 6 6 6 6 6 6 6 6 6 6 6 6 6 6 6 6 6 6 6 6 6 6 6 7 7 8 9 11 14 18 22 9 9 9 9 9 9 9 9 9 9 9 9 9 9 9 9 9 9 9 10 11 13 15 17 20 23 26 28 30 32 34 35 37 37 35 34 32 29 27 25 22 20 18 16 14 13 12 11 10 10 
10 9 9 9 9 9 9 9 9 9 9 9 9 9 9 9 9 9 9 9 9 9 9 9 9 9 9 9 9 9 9 9 9 9 9 9 9 9 9 9 9 9 9 9 10 11 13 15 17 20 11 11 11 11 11 11 11 11 11 11 11 11 11 11 11 11 11 11 12 12 13 14 16 18 20 22 25 27 29 32 34 36 38 39 40 39 37 35 33 31 28 26 23 21 19 18 16 15 14 13 
13 12 12 12 11 11 11 11 11 11 11 11 11 11 11 11 11 11 11 11 11 11 11 11 11 11 11 11 11 11 11 11 11 11 11 11 11 11 11 11 11 11 11 12 12 13 14 16 18 20 14 14 14 14 14 14 14 14 14 14 14 14 14 14 14 14 14 14 14 14 15 16 17 18 20 22 24 26 28 31 33 35 37 39 41 42 41 40 38 36 34 32 29 27 25 22 21 19 18 17 
16 15 15 14 14 14 14 14 14 14 14 14 14 14 14 14 14 14 14 14 14 14 14 14 14 14 14 14 14 14 14 14 14 14 14 14 14 14 14 14 14 14 14 14 14 15 16 17 18 20 16 16 16 16 16 16 16 16 16 16 16 16 16 16 16 16 16 16 16 16 17 17 18 19 20 21 23 25 27 29 31 34 36 38 40 42 43 44 42 41 39 37 35 32 30 28 26 24 22 21 
19 19 18 17 17 16 16 16 16 16 16 16 16 16 16 16 16 16 16 16 16 16 16 16 16 16 16 16 16 16 16 16 16 16 16 16 16 16 16 16 16 16 16 16 16 17 17 18 19 20 18 18 18 18 18 18 18 18 18 18 18 18 18 18 18 18 18 18 18 18 18 18 19 20 20 21 23 24 26 27 30 32 34 36 39 41 42 44 45 45 43 42 40 38 35 33 31 28 26 25 
23 22 21 20 19 19 18 18 18 18 18 18 18 18 18 18 18 18 18 18 18 18 18 18 18 18 18 18 18 18 18 18 18 18 18 18 18 18 18 18 18 18 18 18 18 18 18 19 20 20 19 19 19 19 19 19 19 19 19 19 19 19 19 19 19 19 19 19 19 19 19 20 20 20 21 21 22 23 25 26 28 30 32 34 36 38 41 43 44 45 46 45 44 42 40 38 35 33 31 29 
27 25 24 23 22 21 20 20 20 19 19 19 19 19 19 19 19 19 19 19 19 19 19 19 19 19 19 19 19 19 19 19 19 19 19 19 19 19 19 19 19 19 19 19 19 19 20 20 20 21 20 20 20 20 20 20 20 20 20 20 20 20 20 20 20 20 20 20 20 20 20 20 21 21 21 22 22 23 24 25 26 28 29 31 34 36 38 40 42 44 46 47 47 45 44 42 40 38 35 33 
31 29 27 26 24 23 22 22 21 21 21 20 20 20 20 20 20 20 20 20 20 20 20 20 20 20 20 20 20 20 20 20 20 20 20 20 20 20 20 20 20 20 20 20 20 20 20 21 21 21 21 21 21 21 21 21 21 21 21 21 21 21 21 21 21 21 21 21 21 21 21 21 21 21 21 22 22 22 23 24 25 26 27 29 31 33 35 37 40 42 44 45 47 47 47 45 44 42 39 37 
35 33 31 29 27 26 24 24 23 22 22 21 21 21 21 21 21 21 21 21 21 21 21 21 21 21 21 21 21 21 21 21 21 21 21 21 21 21 21 21 21 21 21 21 21 21 21 21 21 21 21 21 21 21 21 21 21 21 21 21 21 21 21 21 21 21 21 21 21 21 21 21 21 21 22 22 22 22 23 23 24 25 26 27 28 30 32 34 37 39 41 43 45 46 48 48 46 45 43 41 
39 36 34 32 30 28 27 25 24 24 23 22 22 22 22 22 21 21 21 21 21 21 21 21 21 21 21 21 21 21 21 21 21 21 21 21 21 21 21 21 21 21 21 21 21 21 21 21 21 22 22 22 22 22 22 22 22 22 22 22 22 22 22 22 22 22 22 22 22 22 22 22 22 22 22 22 22 22 22 23 23 24 24 25 26 28 30 31 33 36 38 40 42 44 46 47 48 47 46 44 
42 40 38 36 33 31 29 28 26 25 24 24 23 23 22 22 22 22 22 22 22 22 22 22 22 22 22 22 22 22 22 22 22 22 22 22 22 22 22 22 22 22 22 22 22 22 22 22 22 22 22 22 22 22 22 22 22 22 22 22 22 22 22 22 22 22 22 22 22 22 22 22 22 22 22 22 22 22 22 22 23 23 23 24 25 26 27 29 31 32 35 37 39 41 44 45 47 48 48 47 
45 43 41 39 37 35 32 30 29 27 26 25 24 23 23 23 22 22 22 22 22 22 22 22 22 22 22 22 22 22 22 22 22 22 22 22 22 22 22 22 22 22 22 22 22 22 22 22 22 22 22 22 22 22 22 22 22 22 22 22 22 22 22 22 22 22 22 22 22 22 22 22 22 22 22 22 22 22 22 22 22 22 23 23 24 25 25 27 28 30 32 34 36 38 40 43 45 46 47 48 
47 46 45 43 40 38 36 34 32 30 28 27 25 25 24 23 23 22 22 22 22 22 22 22 22 22 22 22 22 22 22 22 22 22 22 22 22 22 22 22 22 22 22 22 22 22 22 22 22 22 22 22 22 22 22 22 22 22 22 22 22 22 22 22 22 22 22 22 22 22 22 22 22 22 22 22 22 22 22 22 22 22 22 23 23 24 24 25 26 27 29 31 33 35 37 39 42 44 45 47 
48 48 47 45 44 42 39 37 35 33 31 29 27 26 25 24 24 23 23 22 22 22 22 22 22 22 22 22 22 22 22 22 22 22 22 22 22 22 22 22 22 22 22 22 22 22 22 22 22 22 22 22 22 22 22 22 22 22 22 22 22 22 22 22 22 22 22 22 22 22 22 22 22 22 22 22 22 22 22 22 22 22 22 22 23 23 23 24 25 26 27 28 30 32 34 36 38 40 43 45 
46 47 48 47 46 45 43 40 38 36 34 32 30 28 27 26 25 24 23 23 23 22 22 22 22 22 22 22 22 22 22 22 22 22 22 22 22 22 22 22 22 22 22 22 22 22 22 22 22 22 22 22 22 22 22 22 22 22 22 22 22 22 22 22 22 22 22 22 22 22 22 22 22 22 22 22 22 22 22 22 22 22 22 22 22 22 23 23 24 24 25 26 27 29 31 33 35 37 39 42 
44 45 47 48 48 47 45 44 42 39 37 35 33 31 29 27 26 25 24 24 23 23 22 22 22 22 22 22 22 22 22 22 22 22 22 22 22 22 22 22 22 22 22 22 22 22 22 22 22 22 22 22 22 22 22 22 22 22 22 22 22 22 22 22 22 22 22 22 22 22 22 22 22 22 22 22 22 22 22 22 22 22 22 22 22 22 22 23 23 23 24 25 26 27 28 30 32 34 36 38 
40 43 45 46 47 48 47 46 45 43 40 38 36 34 32 30 28 27 26 25 24 23 23 23 22 22 22 22 22 22 22 22 22 22 22 22 22 22 22 22 22 22 22 22 22 22 22 22 22 22 22 22 22 22 22 22 22 22 22 22 22 22 22 22 22 22 22 22 22 22 22 22 22 22 22 22 22 22 22 22 22 22 22 22 22 22 22 22 22 23 23 24 24 25 26 27 29 31 33 35 
37 39 42 44 45 47 48 48 47 45 44 42 39 37 35 33 31 29 27 26 25 24 24 23 23 22 22 22 22 22 22 22 22 22 22 22 22 22 22 22 22 22 22 22 22 22 22 22 22 22 23 23 22 22 22 22 22 22 22 22 22 22 22 22 22 22 22 22 22 22 22 22 22 22 22 22 22 22 22 22 22 22 22 22 22 22 22 22 22 22 23 23 23 24 25 26 27 28 30 32 
34 36 38 40 43 45 46 47 48 47 46 45 43 40 38 36 34 32 30 28 27 26 25 24 23 23 23 22 22 22 22 22 22 22 22 22 22 22 22 22 22 22 22 22 22 22 22 22 22 22 24 23 23 22 22 22 22 22 22 22 22 22 22 22 22 22 22 22 22 22 22 22 22 22 22 22 22 22 22 22 22 22 22 22 22 22 22 22 22 22 22 22 23 23 24 24 25 26 27 29 
31 33 35 37 39 42 44 45 47 48 48 47 45 44 42 39 37 35 33 31 29 27 26 25 24 24 23 23 22 22 22 22 22 22 22 22 22 22 22 22 22 22 22 22 22 22 22 22 22 22 25 24 23 23 23 22 22 22 22 22 22 22 22 22 22 22 22 22 22 22 22 22 22 22 22 22 22 22 22 22 22 22 22 22 22 22 22 22 22 22 22 22 22 23 23 23 24 25 26 27 
28 30 32 34 36 38 40 43 45 46 47 48 47 46 45 43 40 38 36 34 32 30 28 27 26 25 24 23 23 23 22 22 22 22 22 22 22 22 22 22 22 22 22 22 22 22 22 22 22 22 26 25 24 24 23 23 22 22 22 22 22 22 22 22 22 22 22 22 22 22 22 22 22 22 22 22 22 22 22 22 22 22 22 22 22 22 22 22 22 22 22 22 22 22 22 23 23 24 24 25 
26 27 29 31 33 35 37 39 42 44 45 47 48 48 47 45 44 42 39 37 35 33 31 29 27 26 25 24 24 23 23 22 22 22 22 22 22 22 22 22 22 22 22 22 22 22 22 22 22 22 28 27 26 25 24 23 23 23 22 22 22 22 22 22 22 22 22 22 22 22 22 22 22 22 22 22 22 22 22 22 22 22 22 22 22 22 22 22 22 22 22 22 22 22 22 22 23 23 23 24 
25 26 27 28 30 32 34 36 38 40 43 45 46 47 48 47 46 45 43 40 38 36 34 32 30 28 27 26 25 24 23 23 23 22 22 22 22 22 22 22 22 22 22 22 22 22 22 22 22 22 31 29 27 26 25 24 24 23 23 23 23 23 23 23 23 23 23 23 23 23 23 23 23 23 23 22 22 22 22 22 22 22 22 22 22 22 22 22 22 22 22 22 22 22 22 22 22 22 23 23 
24 24 25 26 27 29 31 33 35 37 39 42 44 45 47 48 48 47 45 44 42 39 37 35 33 31 29 27 26 25 24 24 23 23 22 22 22 22 22 22 22 22 22 22 22 22 22 22 22 22 34 32 30 28 27 26 25 24 24 23 23 23 23 24 24 24 24 25 25 25 24 24 24 24 23 23 23 22 22 22 22 22 22 22 22 22 22 22 22 22 22 22 22 22 22 22 22 22 22 23 
23 23 24 25 26 27 28 30 32 34 36 38 40 43 45 46 47 48 47 46 45 43 40 38 36 34 32 30 28 27 26 25 24 23 23 23 22 22 22 22 22 22 22 22 22 22 22 22 22 22 37 35 33 31 29 27 26 25 25 25 25 25 25 25 26 27 27 27 27 27 27 26 26 25 25 24 23 23 23 22 22 22 22 22 22 22 22 22 22 22 22 22 22 22 22 22 22 22 22 22 
22 23 23 24 24 25 26 27 29 31 33 35 37 39 42 44 45 47 48 48 47 45 44 42 39 37 35 33 31 29 27 26 25 24 24 23 23 22 22 22 22 22 22 22 22 22 22 22 22 22 40 38 36 34 32 30 29 27 27 26 27 27 28 29 29 30 31 32 32 32 31 30 29 28 27 26 25 24 23 23 22 22 22 22 22 22 22 22 22 22 22 22 22 22 22 22 22 22 22 22 
22 22 23 23 23 24 25 26 27 28 30 32 34 36 38 40 43 45 46 47 48 47 46 45 43 40 38 36 34 32 30 28 27 26 25 24 23 23 23 22 22 22 22 22 22 22 22 22 22 22 44 42 39 37 35 33 31 30 30 29 30 31 32 33 35 37 38 39 39 39 38 36 35 33 31 29 27 25 24 23 23 22 22 22 22 22 22 22 22 22 22 22 22 22 22 22 22 22 22 22 
22 22 22 22 23 23 24 24 25 26 27 29 31 33 35 37 39 42 44 45 47 48 48 47 45 44 42 39 37 35 33 31 29 27 26 25 24 24 23 23 22 22 22 22 22 22 22 22 22 22 46 45 43 41 39 37 35 34 33 34 34 36 38 41 44 46 48 49 50 49 48 46 43 40 36 33 30 28 26 25 24 23 22 22 22 22 22 22 22 22 22 22 22 22 22 22 22 22 22 22 
22 22 22 22 22 23 23 23 24 25 26 27 28 30 32 34 36 38 40 43 45 46 47 48 47 46 45 43 40 38 36 34 32 30 28 27 26 25 24 23 23 23 22 22 22 22 22 22 22 22 48 47 46 44 42 41 39 38 38 39 41 44 48 52 56 60 63 65 65 65 62 59 55 50 45 40 36 32 29 26 25 24 23 22 22 22 22 22 22 22 22 22 22 22 22 22 22 22 22 22 
22 22 22 22 22 22 22 23 23 24 24 25 26 27 29 31 33 35 37 39 42 44 45 47 48 48 47 45 44 42 39 37 35 33 31 29 27 26 25 24 24 23 23 22 22 22 22 22 22 22 47 48 48 47 46 45 44 44 45 47 50 55 60 66 73 78 83 85 86 85 82 77 71 64 57 49 43 37 33 29 26 25 23 23 22 22 22 22 22 22 22 22 22 22 22 22 22 22 22 22 
22 22 22 22 22 22 22 22 23 23 23 24 25 26 27 28 30 32 34 36 38 40 43 45 46 47 48 47 46 45 43 40 38 36 34 32 30 28 27 26 25 24 23 23 23 22 22 22 22 22 46 47 48 49 48 48 48 50 52 56 61 68 76 85 94 102 108 112 113 112 108 101 92 82 72 62 52 44 38 33 29 26 24 23 23 22 22 22 22 22 22 22 22 22 22 22 22 22 22 22 
22 22 22 22 22 22 22 22 22 22 23 23 24 24 25 26 27 29 31 33 35 37 39 42 44 45 47 48 48 47 45 44 42 39 37 35 33 31 29 27 26 25 24 24 23 23 22 22 22 22 43 45 47 48 50 51 53 56 60 67 75 85 96 108 120 131 139 144 146 144 139 130 118 105 91 77 65 54 44 37 32 28 25 24 23 22 22 22 22 22 22 22 22 22 22 22 22 22 22 22 
22 22 22 22 22 22 22 22 22 22 22 23 23 23 24 25 26 27 28 30 32 34 36 38 40 43 45 46 47 48 47 46 45 43 40 38 36 34 32 30 28 27 26 25 24 23 23 23 22 22 40 42 45 47 50 53 56 62 69 78 90 104 119 135 151 165 176 183 185 183 176 164 149 132 114 96 79 65 52 43 36 30 27 25 23 23 22 22 22 22 22 22 22 22 22 22 22 22 22 22 
22 22 22 22 22 22 22 22 22 22 22 22 22 23 23 24 24 25 26 27 29 31 33 35 37 39 42 44 45 47 48 48 47 45 44 42 39 37 35 33 31 29 27 26 25 24 24 23 23 22 36 39 42 45 49 54 60 67 77 90 106 124 144 165 185 205 219 224 226 224 219 204 183 161 139 117 96 77 62 49 40 33 29 26 24 23 22 22 22 22 22 22 22 22 22 22 22 22 22 22 
22 22 22 22 22 22 22 22 22 22 22 22 22 22 23 23 23 24 25 26 27 28 30 32 34 36 38 40 43 45 46 47 48 47 46 45 43 40 38 36 34 32 30 28 27 26 25 24 23 23 33 36 39 43 48 54 62 73 85 102 123 146 171 196 222 235 242 245 246 245 242 235 221 194 166 139 113 91 72 57 45 36 31 27 25 23 23 22 22 22 22 22 22 22 22 22 22 22 22 22 
22 22 22 22 22 22 22 22 22 22 22 22 22 22 22 22 23 23 24 24 25 26 27 29 31 33 35 37 39 42 44 45 47 48 48 47 45 44 42 39 37 35 33 31 29 27 26 25 24 24 30 33 36 41 47 54 65 78 95 115 139 168 198 226 241 248 251 252 253 252 251 248 241 225 194 161 132 105 82 64 50 40 33 28 25 24 23 22 22 22 22 22 22 22 22 22 22 22 22 22 
22 22 22 22 22 22 22 22 22 22 22 22 22 22 22 22 22 23 23 23 24 25 26 27 28 30 32 34 36 38 40 43 45 46 47 48 47 46 45 43 40 38 36 34 32 30 28 27 26 25 28 31 34 39 45 54 66 82 102 127 156 188 223 242 250 253 254 254 254 254 254 253 250 241 221 183 149 118 92 71 55 43 35 29 26 24 23 22 22 22 22 22 22 22 22 22 22 22 22 22 
22 22 22 22 22 22 22 22 22 22 22 22 22 22 22 22 22 22 22 23 23 24 24 25 26 27 29 31 33 35 37 39 42 44 45 47 48 48 47 45 44 42 39 37 35 33 31 29 27 26 27 29 32 37 44 54 68 86 109 137 169 207 236 249 253 254 254 254 254 254 254 254 253 248 235 204 164 130 101 77 59 46 36 30 27 24 23 22 22 22 22 22 22 22 22 22 22 22 22 22 
22 22 22 22 22 22 22 22 22 22 22 22 22 22 22 22 22 22 22 22 23 23 23 24 25 26 27 28 30 32 34 36 38 40 43 45 46 47 48 47 46 45 43 40 38 36 34 32 30 28 25 27 31 36 43 54 69 88 113 143 179 220 243 251 254 254 254 254 254 254 254 254 254 251 242 218 176 139 108 83 63 48 38 31 27 25 23 23 22 22 22 22 22 22 22 22 22 22 22 22 
22 22 22 22 22 22 22 22 22 22 22 22 22 22 22 22 22 22 22 22 22 22 23 23 24 24 25 26 27 29 31 33 35 37 39 42 44 45 47 48 48 47 45 44 42 39 37 35 33 31 25 26 30 34 42 53 69 89 115 147 184 225 246 252 254 254 254 254 254 254 254 254 254 252 245 224 183 144 112 86 66 50 39 32 28 25 23 23 22 22 22 22 22 22 22 22 22 22 22 22 
22 22 22 22 22 22 22 22 22 22 22 22 22 22 22 22 22 22 22 22 22 22 22 23 23 23 24 25 26 27 28 30 32 34 36 38 40 43 45 46 47 48 47 46 45 43 40 38 36 34 24 26 29 33 41 52 68 89 115 147 185 226 246 253 254 254 254 254 255 254 254 254 254 253 246 226 185 147 115 88 67 51 40 33 28 25 24 23 22 22 22 22 22 22 22 22 22 22 22 22 
22 22 22 22 22 22 22 22 22 22 22 22 22 22 22 22 22 22 22 22 22 22 22 22 22 23 23 24 24 25 26 27 29 31 33 35 37 39 42 44 45 47 48 48 47 45 44 41 39 37 24 25 28 33 40 51 66 87 113 145 183 224 245 252 254 254 254 254 254 254 254 254 254 252 246 225 184 146 114 88 68 52 41 34 29 26 24 23 23 22 22 22 22 22 22 22 22 22 22 22 
22 22 22 22 22 22 22 22 22 22 22 22 22 22 22 22 22 22 22 22 22 22 22 22 22 22 23 23 23 24 25 26 27 28 30 32 34 36 38 40 43 45 46 47 48 47 46 44 42 40 23 25 27 32 38 49 63 83 108 139 176 218 242 251 254 254 254 254 254 254 254 254 254 251 243 220 178 142 112 87 67 53 42 35 30 27 25 24 23 23 22 22 22 22 22 22 22 22 22 22 
22 22 22 22 22 22 22 22 22 22 22 22 22 22 22 22 22 22 22 22 22 22 22 22 22 22 22 22 23 23 24 24 25 26 27 29 31 33 35 37 39 42 44 45 47 48 48 47 45 43 23 24 27 30 37 46 59 78 101 130 164 204 235 248 253 254 254 254 254 254 254 254 253 249 236 207 169 136 108 85 66 53 43 36 31 28 26 24 23 23 23 22 22 22 22 22 22 22 22 22 
22 22 22 22 22 22 22 22 22 22 22 22 22 22 22 22 22 22 22 22 22 22 22 22 22 22 22 22 22 23 23 23 24 25 26 27 28 30 32 34 36 38 40 43 45 46 47 48 47 46 23 24 26 29 35 43 55 71 92 118 149 183 221 241 250 253 254 254 254 254 254 253 250 242 223 188 155 126 102 81 65 53 43 37 32 29 27 25 24 24 23 23 22 22 22 22 22 22 22 22 
22 22 22 22 22 22 22 22 22 22 22 22 22 22 22 22 22 22 22 22 22 22 22 22 22 22 22 22 22 22 22 23 23 24 24 25 26 27 29 31 33 35 37 39 41 44 45 47 48 48 23 24 25 28 33 40 50 64 82 105 132 161 194 225 241 248 251 252 253 252 251 248 241 227 198 168 140 115 94 77 63 53 45 39 34 31 29 27 26 25 24 23 23 23 22 22 22 22 22 22 
22 22 22 22 22 22 22 22 22 22 22 22 22 22 22 22 22 22 22 22 22 22 22 22 22 22 22 22 22 22 22 22 23 23 23 24 25 26 27 28 30 32 34 36 38 40 42 44 46 47 23 23 25 27 31 36 45 57 72 91 114 139 166 194 221 235 242 245 246 245 242 235 222 196 171 146 122 102 86 72 61 53 46 41 37 34 31 29 27 26 25 24 24 23 23 22 22 22 22 22 
22 22 22 22 22 22 22 22 22 22 22 22 22 22 22 22 22 22 22 22 22 22 22 22 22 22 22 22 22 22 22 22 22 22 23 23 24 24 25 26 27 29 31 33 35 37 39 41 43 45 22 23 24 26 29 33 40 49 62 77 96 117 139 161 183 204 219 224 226 224 219 205 185 165 145 125 106 90 77 67 59 53 47 43 40 37 34 32 30 28 27 26 25 24 23 23 23 22 22 22 
22 22 22 22 22 22 22 22 22 22 22 22 22 22 22 22 22 22 22 22 22 22 22 22 22 22 22 22 22 22 22 22 22 22 22 23 23 23 24 25 26 27 28 30 32 34 36 38 40 42 22 23 23 25 27 30 36 43 52 65 79 96 114 132 149 164 176 183 185 183 176 165 151 136 120 105 91 79 69 62 56 52 49 45 43 40 37 35 33 31 29 27 26 25 24 24 23 23 22 22 
22 22 22 22 22 22 22 22 22 22 22 22 22 22 22 22 22 22 22 22 22 22 22 22 22 22 22 22 22 22 22 22 22 22 22 22 22 23 23 24 24 25 26 27 29 31 33 35 37 39 22 22 23 24 25 28 32 37 44 54 65 77 91 105 118 130 139 144 146 144 139 131 121 109 97 86 76 68 61 57 53 51 49 47 45 43 41 38 36 34 32 30 28 27 26 25 24 23 23 23 
22 22 22 22 22 22 22 22 22 22 22 22 22 22 22 22 22 22 22 22 22 22 22 22 22 22 22 22 22 22 22 22 22 22 22 22 22 22 23 23 23 24 25 26 27 28 30 32 34 36 22 22 23 23 24 26 29 33 38 44 52 62 72 82 92 101 108 112 113 112 108 102 95 86 77 70 63 57 54 51 50 49 49 49 47 46 44 42 39 37 35 33 31 29 27 26 25 24 24 23 
23 22 22 22 22 22 22 22 22 22 22 22 22 22 22 22 22 22 22 22 22 22 22 22 22 22 22 22 22 22 22 22 22 22 22 22 22 22 22 22 23 23 24 24 25 26 27 29 31 33 22 22 22 23 23 25 26 29 33 37 43 49 57 64 71 77 82 85 86 86 83 78 73 67 61 56 52 48 47 46 46 46 47 48 48 48 46 45 43 40 38 36 34 32 30 28 27 26 25 24 
23 23 23 22 22 22 22 22 22 22 22 22 22 22 22 22 22 22 22 22 22 22 22 22 22 22 22 22 22 22 22 22 22 22 22 22 22 22 22 22 22 23 23 23 24 25 26 27 28 30 22 22 22 22 23 24 25 26 29 32 36 40 45 50 55 59 62 65 65 65 63 60 56 52 48 45 43 41 40 41 41 43 44 46 47 48 48 47 45 44 42 39 37 35 33 31 29 27 26 25 
24 24 23 23 22 22 22 22 22 22 22 22 22 22 22 22 22 22 22 22 22 22 22 22 22 22 22 22 22 22 22 22 22 22 22 22 22 22 22 22 22 22 22 23 23 24 24 25 26 27 22 22 22 22 22 23 24 25 26 28 30 33 36 40 43 46 48 49 50 50 48 46 44 41 39 37 36 35 35 36 37 39 41 43 45 46 47 48 47 46 45 43 40 38 36 34 32 30 28 27 
26 25 24 23 23 23 22 22 22 22 22 22 22 22 22 22 22 22 22 22 22 22 22 22 22 22 22 22 22 22 22 22 22 22 22 22 22 22 22 22 22 22 22 22 23 23 23 24 25 26 22 22 22 22 22 22 23 23 24 25 27 29 31 33 35 36 38 39 39 39 38 37 35 34 32 31 31 31 31 32 33 35 37 39 42 44 45 47 48 48 47 45 44 42 39 37 35 33 31 29 
27 26 25 24 24 23 23 22 22 22 22 22 22 22 22 22 22 22 22 22 22 22 22 22 22 22 22 22 22 22 22 22 22 22 22 22 22 22 22 22 22 22 22 22 22 22 23 23 24 24 22 22 22 22 22 22 22 23 23 24 25 26 27 28 29 30 31 32 32 32 31 30 30 29 28 27 27 27 28 29 30 32 34 36 38 40 43 45 46 47 48 47 46 45 43 40 38 36 34 32 
30 28 27 26 25 24 23 23 23 22 22 22 22 22 22 22 22 22 22 22 22 22 22 22 22 22 22 22 22 22 22 22 22 22 22 22 22 22 22 22 22 22 22 22 22 22 22 23 23 23 22 22 22 22 22 22 22 22 23 23 23 24 25 25 26 26 27 27 27 27 27 27 26 26 25 25 25 25 26 26 28 29 31 33 35 37 39 42 44 45 47 48 48 47 45 44 42 39 37 35 
33 31 29 27 26 25 24 24 23 23 22 22 22 22 22 22 22 22 22 22 22 22 22 22 22 22 22 22 22 22 22 22 22 22 22 22 22 22 22 22 22 22 22 22 22 22 22 22 22 23 22 22 22 22 22 22 22 22 22 22 23 23 23 24 24 24 24 25 25 25 25 24 24 24 24 24 24 24 24 25 26 27 28 30 32 34 36 38 40 43 45 46 47 48 47 46 45 43 40 38 
36 34 32 30 28 27 26 25 24 23 23 23 22 22 22 22 22 22 22 22 22 22 22 22 22 22 22 22 22 22 22 22 22 22 22 22 22 22 22 22 22 22 22 22 22 22 22 22 22 22 22 22 22 22 22 22 22 22 22 22 22 22 23 23 23 23 23 23 23 23 23 23 23 23 23 23 23 23 23 24 24 25 26 27 29 31 33 35 37 39 42 44 45 47 48 48 47 45 44 42 
39 37 35 33 31 29 27 26 25 24 24 23 23 22 22 22 22 22 22 22 22 22 22 22 22 22 22 22 22 22 22 22 22 22 22 22 22 22 22 22 22 22 22 22 22 22 22 22 22 22 22 22 22 22 22 22 22 22 22 22 22 22 22 22 22 22 22 22 22 22 22 22 22 22 22 22 22 22 23 23 23 24 25 26 27 28 30 32 34 36 38 40 43 45 46 47 48 47 46 45 
43 40 38 36 34 32 30 28 27 26 25 24 23 23 23 22 22 22 22 22 22 22 22 22 22 22 22 22 22 22 22 22 22 22 22 22 22 22 22 22 22 22 22 22 22 22 22 22 22 22 22 22 22 22 22 22 22 22 22 22 22 22 22 22 22 22 22 22 22 22 22 22 22 22 22 22 22 22 22 22 23 23 24 24 25 26 27 29 31 33 35 37 39 42 44 45 47 48 48 47 
45 44 42 39 37 35 33 31 29 27 26 25 24 24 23 23 22 22 22 22 22 22 22 22 22 22 22 22 22 22 22 22 22 22 22 22 22 22 22 22 22 22 22 22 22 22 22 22 22 22 22 22 22 22 22 22 22 22 22 22 22 22 22 22 22 22 22 22 22 22 22 22 22 22 22 22 22 22 22 22 22 23 23 23 24 25 26 27 28 30 32 34 36 38 40 43 45 46 47 48 
47 46 45 43 40 38 36 34 32 30 28 27 26 25 24 23 23 23 22 22 22 22 22 22 22 22 22 22 22 22 22 22 22 22 22 22 22 22 22 22 22 22 22 22 22 22 22 22 22 22 22 22 22 22 22 22 22 22 22 22 22 22 22 22 22 22 22 22 22 22 22 22 22 22 22 22 22 22 22 22 22 22 22 23 23 24 24 25 26 27 29 31 33 35 37 39 42 44 45 47 
48 48 47 45 44 42 39 37 35 33 31 29 27 26 25 24 24 23 23 22 22 22 22 22 22 22 22 22 22 22 22 22 22 22 22 22 22 22 22 22 22 22 22 22 22 22 22 22 22 22 22 22 22 22 22 22 22 22 22 22 22 22 22 22 22 22 22 22 22 22 22 22 22 22 22 22 22 22 22 22 22 22 22 22 23 23 23 24 25 26 27 28 30 32 34 36 38 40 43 45 
46 47 48 47 46 45 43 40 38 36 34 32 30 28 27 26 25 24 23 23 23 22 22 22 22 22 22 22 22 22 22 22 22 22 22 22 22 22 22 22 22 22 22 22 22 22 22 22 22 22 22 22 22 22 22 22 22 22 22 22 22 22 22 22 22 22 22 22 22 22 22 22 22 22 22 22 22 22 22 22 22 22 22 22 22 22 23 23 24 24 25 26 27 29 31 33 35 37 39 42 
44 45 47 48 48 47 45 44 42 39 37 35 33 31 29 27 26 25 24 24 23 23 22 22 22 22 22 22 22 22 22 22 22 22 22 22 22 22 22 22 22 22 22 22 22 22 22 22 22 22 22 22 22 22 22 22 22 22 22 22 22 22 22 22 22 22 22 22 22 22 22 22 22 22 22 22 22 22 22 22 22 22 22 22 22 22 22 23 23 23 24 25 26 27 28 30 32 34 36 38 
40 43 45 46 47 48 47 46 45 43 40 38 36 34 32 30 28 27 26 25 24 23 23 23 22 22 22 22 22 22 22 22 22 22 22 22 22 22 22 22 22 22 22 22 22 22 22 22 22 22 22 22 22 22 22 22 22 22 22 22 22 22 22 22 22 22 22 22 22 22 22 22 22 22 22 22 22 22 22 22 22 22 22 22 22 22 22 22 22 23 23 24 24 25 26 27 29 31 33 35 
37 39 42 44 45 47 48 48 47 45 44 42 39 37 35 33 31 29 27 26 25 24 24 23 23 22 22 22 22 22 22 22 22 22 22 22 22 22 22 22 22 22 22 22 22 22 22 22 22 22 23 23 22 22 22 22 22 22 22 22 22 22 22 22 22 22 22 22 22 22 22 22 22 22 22 22 22 22 22 22 22 22 22 22 22 22 22 22 22 22 23 23 23 24 25 26 27 28 30 32 
34 36 38 40 43 45 46 47 48 47 46 45 43 40 38 36 34 32 30 28 27 26 25 24 23 23 23 22 22 22 22 22 22 22 22 22 22 22 22 22 22 22 22 22 22 22 22 22 22 22 24 23 23 22 22 22 22 22 22 22 22 22 22 22 22 22 22 22 22 22 22 22 22 22 22 22 22 22 22 22 22 22 22 22 22 22 22 22 22 22 22 22 23 23 24 24 25 26 27 29 
31 33 35 37 39 42 44 45 47 48 48 47 45 44 42 39 37 35 33 31 29 27 26 25 24 24 23 23 22 22 22 22 22 22 22 22 22 22 22 22 22 22 22 22 22 22 22 22 22 22 25 24 23 23 23 22 22 22 22 22 22 22 22 22 22 22 22 22 22 22 22 22 22 22 22 22 22 22 22 22 22 22 22 22 22 22 22 22 22 22 22 22 22 23 23 23 24 25 26 27 
28 30 32 34 36 38 40 43 45 46 47 48 47 46 45 43 40 38 36 34 32 30 28 27 26 25 24 23 23 23 22 22 22 22 22 22 22 22 22 22 22 22 22 22 22 22 22 22 22 22 26 25 24 24 23 23 22 22 22 22 22 22 22 22 22 22 22 22 22 22 22 22 22 22 22 22 22 22 22 22 22 22 22 22 22 22 22 22 22 22 22 22 22 22 22 23 23 24 24 25 
26 27 29 31 33 35 37 39 42 44 45 47 48 48 47 45 44 42 39 37 35 33 31 29 27 26 25 24 24 23 23 22 22 22 22 22 22 22 22 22 22 22 22 22 22 22 22 22 22 22 28 27 26 25 24 23 23 23 22 22 22 22 22 22 22 22 22 22 22 22 22 22 22 22 22 22 22 22 22 22 22 22 22 22 22 22 22 22 22 22 22 22 22 22 22 22 23 23 23 24 
25 26 27 28 30 32 34 36 38 40 43 45 46 47 48 47 46 45 43 40 38 36 34 32 30 28 27 26 25 24 23 23 23 22 22 22 22 22 22 22 22 22 22 22 22 22 22 22 22 22 31 29 27 26 25 24 24 23 23 22 22 22 22 22 22 22 22 22 22 22 22 22 22 22 22 22 22 22 22 22 22 22 22 22 22 22 22 22 22 22 22 22 22 22 22 22 22 22 23 23 
24 24 25 26 27 29 31 33 35 37 39 42 44 45 47 48 48 47 45 44 42 39 37 35 33 31 29 27 26 25 24 24 23 23 22 22 22 22 22 22 22 22 22 22 22 22 22 22 22 22 34 32 30 28 27 26 25 24 23 23 23 22 22 22 22 22 22 22 22 22 22 22 22 22 22 22 22 22 22 22 22 22 22 22 22 22 22 22 22 22 22 22 22 22 22 22 22 22 22 23 
23 23 24 25 26 27 28 30 32 34 36 38 40 43 45 46 47 48 47 46 45 43 40 38 36 34 32 30 28 27 26 25 24 23 23 23 22 22 22 22 22 22 22 22 22 22 22 22 22 22 37 35 33 31 29 27 26 25 24 24 23 23 22 22 22 22 22 22 22 22 22 22 22 22 22 22 22 22 22 22 22 22 22 22 22 22 22 22 22 22 22 22 22 22 22 22 22 22 22 22 
22 23 23 24 24 25 26 27 29 31 33 35 37 39 42 44 45 47 48 48 47 45 44 42 39 37 35 33 31 29 27 26 25 24 24 23 23 22 22 22 22 22 22 22 22 22 22 22 22 22 40 38 36 34 32 30 28 27 26 25 24 23 23 23 22 22 22 22 22 22 22 22 22 22 22 22 22 22 22 22 22 22 22 22 22 22 22 22 22 22 22 22 22 22 22 22 22 22 22 22 
22 22 23 23 23 24 25 26 27 28 30 32 34 36 38 40 43 45 46 47 48 47 46 45 43 40 38 36 34 32 30 28 27 26 25 24 23 23 23 22 22 22 22 22 22 22 22 22 22 22 44 42 39 37 35 33 31 29 27 26 25 24 24 23 23 22 22 22 22 22 22 22 22 22 22 22 22 22 22 22 22 22 22 22 22 22 22 22 22 22 22 22 22 22 22 22 22 22 22 22 
22 22 22 22 23 23 24 24 25 26 27 29 31 33 35 37 39 42 44 45 47 48 48 47 45 44 42 39 37 35 33 31 29 27 26 25 24 24 23 23 22 22 22 22 22 22 22 22 22 22 46 45 43 40 38 36 34 32 30 28 27 26 25 24 23 23 23 22 22 22 22 22 22 22 22 22 22 22 22 22 22 22 22 22 22 22 22 22 22 22 22 22 22 22 22 22 22 22 22 22 
22 22 22 22 22 23 23 23 24 25 26 27 28 30 32 34 36 38 40 43 45 46 47 48 47 46 45 43 40 38 36 34 32 30 28 27 26 25 24 23 23 23 22 22 22 22 22 22 22 22 48 47 45 44 42 39 37 35 33 31 29 27 26 25 24 24 23 23 22 22 22 22 22 22 22 22 22 22 22 22 22 22 22 22 22 22 22 22 22 22 22 22 22 22 22 22 22 22 22 22 
22 22 22 22 22 22 22 23 23 24 24 25 26 27 29 31 33 35 37 39 42 44 45 47 48 48 47 45 44 42 39 37 35 33 31 29 27 26 25 24 24 23 23 22 22 22 22 22 22 22 47 48 47 46 45 43 40 38 36 34 32 30 28 27 26 25 24 23 23 23 22 22 22 22 22 22 22 22 22 22 22 22 22 22 22 22 22 22 22 22 22 22 22 22 22 22 22 22 22 22 
22 22 22 22 22 22 22 22 23 23 23 24 25 26 27 28 30 32 34 36 38 40 43 45 46 47 48 47 46 45 43 40 38 36 34 32 30 28 27 26 25 24 23 23 23 22 22 22 22 22 45 47 48 48 47 45 44 42 39 37 35 33 31 29 27 26 25 24 24 23 23 22 22 22 22 22 22 22 22 22 22 22 22 22 22 22 22 22 22 22 22 22 22 22 22 22 22 22 22 22 
22 22 22 22 22 22 22 22 22 22 23 23 24 24 25 26 27 29 31 33 35 37 39 42 44 45 47 48 48 47 45 44 42 39 37 35 33 31 29 27 26 25 24 24 23 23 22 22 22 22 43 45 46 47 48 47 46 45 43 40 38 36 34 32 30 28 27 26 25 24 23 23 23 22 22 22 22 22 22 22 22 22 22 22 22 22 22 22 22 22 22 22 22 22 22 22 22 22 22 22 
22 22 22 22 22 22 22 22 22 22 22 23 23 23 24 25 26 27 28 30 32 34 36 38 40 43 45 46 47 48 47 46 45 43 40 38 36 34 32 30 28 27 26 25 24 23 23 23 22 22 39 42 44 45 47 48 48 47 45 44 42 39 37 35 33 31 29 27 26 25 24 24 23 23 22 22 22 22 22 22 22 22 22 22 22 22 22 22 22 22 22 22 22 22 22 22 22 22 22 22 
22 22 22 22 22 22 22 22 22 22 22 22 22 23 23 24 24 25 26 27 29 31 33 35 37 39 42 44 45 47 48 48 47 45 44 42 39 37 35 33 31 29 27 26 25 24 24 23 23 22 36 38 40 43 45 46 47 48 47 46 45 43 40 38 36 34 32 30 28 27 26 25 24 23 23 23 22 22 22 22 22 22 22 22 22 22 22 22 22 22 22 22 22 22 22 22 22 22 22 22 
22 22 22 22 22 22 22 22 22 22 22 22 22 22 23 23 23 24 25 26 27 28 30 32 34 36 38 40 43 45 46 47 48 47 46 45 43 40 38 36 34 32 30 28 27 26 25 24 23 23 33 35 37 39 42 44 45 47 48 48 47 45 44 42 39 37 35 33 31 29 27 26 25 24 24 23 23 22 22 22 22 22 22 22 22 22 22 22 22 22 22 22 22 22 22 22 22 22 22 22 
22 22 22 22 22 22 22 22 22 22 22 22 22 22 22 22 23 23 24 24 25 26 27 29 31 33 35 37 39 42 44 45 47 48 48 47 45 44 42 39 37 35 33 31 29 27 26 25 24 24 30 32 34 36 38 40 43 45 46 47 48 47 46 45 43 40 38 36 34 32 30 28 27 26 25 24 23 23 22 22 22 22 22 22 22 22 22 22 22 22 22 22 22 22 22 22 22 22 22 22 
22 22 22 22 22 22 22 22 22 22 22 22 22 22 22 22 22 23 23 23 24 25 26 27 28 30 32 34 36 38 40 43 45 46 47 48 47 46 45 43 40 38 36 34 32 30 28 27 26 25 27 29 31 33 35 37 39 42 44 45 47 48 48 47 45 44 41 39 37 35 33 31 29 27 26 25 24 23 23 22 22 22 22 22 22 22 22 22 22 22 22 22 22 22 22 22 22 22 22 22 
22 22 22 22 22 22 22 22 22 22 22 22 22 22 22 22 22 22 22 23 23 24 24 25 26 27 29 31 33 35 37 39 42 44 45 47 48 48 47 45 44 41 39 37 35 32 31 29 27 26 26 27 28 30 32 34 36 38 40 43 45 46 47 48 47 46 44 42 40 38 36 34 32 30 28 27 25 24 23 23 22 22 22 22 22 22 22 22 22 22 22 22 22 22 22 22 22 22 22 22 
22 22 22 22 22 22 22 22 22 22 22 22 22 22 22 22 22 22 22 22 23 23 23 24 25 26 27 28 30 32 34 36 38 40 43 45 46 47 48 47 46 44 42 40 38 36 34 32 30 28 24 25 26 27 29 31 33 35 37 39 41 43 45 47 48 48 46 45 43 41 39 37 35 33 31 29 27 26 24 23 23 22 22 22 22 22 22 22 22 22 22 22 22 22 22 22 22 22 22 22 
22 22 22 22 22 22 22 22 22 22 22 22 22 22 22 22 22 22 22 22 22 22 23 23 24 24 25 26 27 29 31 33 35 37 39 41 43 45 47 48 48 46 45 43 41 39 37 35 33 31 23 24 25 26 27 28 30 32 34 36 38 40 42 44 45 46 47 46 45 43 42 40 39 37 35 32 30 27 25 24 23 22 22 22 22 22 22 22 22 22 22 22 22 22 22 22 22 22 22 22 
22 22 22 22 22 22 22 22 22 22 22 22 22 22 22 22 22 22 22 22 22 22 22 23 23 23 24 25 26 27 28 30 32 34 36 38 40 42 44 45 46 47 46 45 43 42 40 39 37 34 23 23 24 24 25 26 27 29 30 32 34 36 39 40 42 44 45 46 45 44 44 44 43 42 40 37 33 29 26 24 23 23 22 22 22 22 22 22 22 22 22 22 22 22 22 22 22 22 22 22 
22 22 22 22 22 22 22 22 22 22 22 22 22 22 22 22 22 22 22 22 22 22 22 22 22 23 23 24 24 25 26 27 29 30 32 34 36 39 40 42 44 45 46 45 44 44 43 43 42 39 22 23 23 23 24 25 25 26 28 29 31 33 34 36 38 39 41 42 43 44 44 46 48 49 47 42 36 30 27 24 23 23 22 22 22 22 22 22 22 22 22 22 22 22 22 22 22 22 22 22 
22 22 22 22 22 22 22 22 22 22 22 22 22 22 22 22 22 22 22 22 22 22 22 22 22 22 23 23 23 24 25 25 26 28 29 31 33 34 36 38 39 41 42 43 44 44 46 48 48 46 22 22 22 23 23 23 24 25 25 27 28 29 30 32 33 34 35 36 37 39 42 47 55 60 59 50 39 31 26 24 23 22 22 22 22 22 22 22 22 22 22 22 22 22 22 22 22 22 22 22 
22 22 22 22 22 22 22 22 22 22 22 22 22 22 22 22 22 22 22 22 22 22 22 22 22 22 22 22 23 23 23 24 25 25 27 28 29 30 32 33 34 35 36 37 39 41 47 54 59 56 22 22 22 22 22 23 23 23 24 24 25 25 26 27 28 28 29 29 30 31 33 41 61 82 81 58 36 28 25 23 23 22 22 22 22 22 22 22 22 22 22 22 22 22 22 22 22 22 22 22 
22 22 22 22 22 22 22 22 22 22 22 22 22 22 22 22 22 22 22 22 22 22 22 22 22 22 22 22 22 22 23 23 23 24 24 25 25 26 27 28 28 29 29 30 31 33 41 60 81 77 22 22 22 22 22 22 22 22 22 22 22 22 22 22 22 22 22 22 22 22 22 22 44 144 144 44 22 22 22 22 22 22 22 22 22 22 22 22 22 22 22 22 22 22 22 22 22 22 22 22 
22 22 22 22 22 22 22 22 22 22 22 22 22 22 22 22 22 22 22 22 22 22 22 22 22 22 22 22 22 22 22 22 22 22 22 22 22 22 22 22 22 22 22 22 22 22 22 44 144 144 23 23 23 23 23 23 23 23 23 23 23 23 23 23 23 23 23 23 23 23 23 23 23 23 23 23 23 23 23 23 23 23 23 23 23 23 23 23 23 23 23 23 23 23 23 23 23 23 23 23 
23 23 23 23 23 23 23 23 23 23 23 23 23 23 23 23 23 23 23 23 23 23 23 23 23 23 23 23 23 23 23 23 23 23 23 23 23 23 23 23 23 23 23 23 23 23 23 23 23 23 23 23 23 23 23 23 23 23 23 23 23 23 23 23 23 23 23 23 23 23 23 23 23 23 23 23 23 23 23 23 23 23 23 23 23 23 23 23 23 23 23 23 23 23 23 23 23 23 23 23 
23 23 23 23 23 23 23 23 23 23 23 23 23 23 23 23 23 23 23 23 23 23 23 23 23 23 23 23 23 23 23 23 23 23 23 23 23 23 23 23 23 23 23 23 23 23 23 23 23 23 23 23 23 23 23 23 23 23 23 23 23 23 23 23 23 23 23 23 23 23 23 23 23 23 23 23 23 23 23 23 23 23 23 23 23 23 23 23 23 23 23 23 23 23 23 23 23 23 23 23 
23 23 23 23 23 23 23 23 23 23 23 23 23 23 23 23 23 23 23 23 23 23 23 23 23 23 23 23 23 23 23 23 23 23 23 23 23 23 23 23 23 23 23 23 23 23 23 23 23 23 23 23 23 23 23 23 23 23 23 23 23 23 23 23 23 23 23 23 23 23 23 23 23 23 23 23 23 23 23 23 23 23 23 23 23 23 23 23 23 23 23 23 23 23 23 23 23 23 23 23 
23 23 23 23 23 23 23 23 23 23 23 23 23 23 23 23 23 23 23 23 23 23 23 23 23 23 23 23 23 23 23 23 23 23 23 23 23 23 23 23 23 23 23 23 23 23 23 23 23 23 23 23 23 23 23 23 23 23 23 23 23 23 23 23 23 23 23 23 23 23 23 23 23 23 23 23 23 23 23 23 23 23 23 23 23 23 23 23 23 23 23 23 23 23 23 23 23 23 23 23 
23 23 23 23 23 23 23 23 23 23 23 23 23 23 23 23 23 23 23 23 23 23 23 23 23 23 23 23 23 23 23 23 23 23 23 23 23 23 23 23 23 23 23 23 23 23 23 23 23 23 23 23 23 23 23 23 23 23 23 23 23 23 23 23 23 23 23 23 23 23 23 23 23 23 23 23 23 23 23 23 23 23 23 23 23 23 23 23 23 23 23 23 23 23 23 23 23 23 23 23 
23 23 23 23 23 23 23 23 23 23 23 23 23 23 23 23 23 23 23 23 23 23 23 23 23 23 23 23 23 23 23 23 23 23 23 23 23 23 23 23 23 23 23 23 23 23 23 23 23 23 23 23 23 23 23 23 23 23 23 23 23 23 23 23 23 23 23 23 23 23 23 23 23 23 23 23 23 23 23 23 23 23 23 23 23 23 23 23 23 23 23 23 23 23 23 23 23 23 23 23 
23 23 23 23 23 23 23 23 23 23 23 23 23 23 23 23 23 23 23 23 23 23 23 23 23 23 23 23 23 23 23 23 23 23 23 23 23 23 23 23 23 23 23 23 23 23 23 23 23 23 23 23 23 23 23 23 23 23 23 23 23 23 23 23 23 23 23 23 23 23 23 23 23 23 23 23 23 23 23 23 23 23 23 23 23 23 23 23 23 23 23 23 23 23 23 23 23 23 23 23 
23 23 23 23 23 23 23 23 23 23 23 23 23 23 23 23 23 23 23 23 23 23 23 23 23 23 23 23 23 23 23 23 23 23 23 23 23 23 23 23 23 23 23 23 23 23 23 23 23 23 23 23 23 23 23 23 23 23 23 23 23 23 23 23 23 23 23 23 23 23 23 23 23 23 23 23 23 23 23 23 23 23 23 23 23 23 23 23 23 23 23 23 23 23 23 23 23 23 23 23 
23 23 23 23 23 23 23 23 23 23 23 23 23 23 23 23 23 23 23 23 23 23 23 23 23 23 23 23 23 23 23 23 23 23 23 23 23 23 23 23 23 23 23 23 23 23 23 23 23 23 23 23 23 23 23 23 23 23 23 23 23 23 23 23 23 23 23 23 23 23 23 23 23 23 23 23 23 23 23 23 23 23 23 23 23 23 23 23 23 23 23 23 23 23 23 23 23 23 23 23 
23 23 23 23 23 23 23 23 23 23 23 23 23 23 23 23 23 23 23 23 23 23 23 23 23 23 23 23 23 23 23 23 23 23 23 23 23 23 23 23 23 23 23 23 23 23 23 23 23 23 23 23 23 23 23 23 23 23 23 23 23 23 23 23 23 23 23 23 23 23 23 23 23 23 23 23 23 23 23 23 23 23 23 23 23 23 23 23 23 23 23 23 23 23 23 23 23 23 23 23 
23 23 23 23 23 23 23 23 23 23 23 23 23 23 23 23 23 23 23 23 23 23 23 23 23 23 23 23 23 23 23 23 23 23 23 23 23 23 23 23 23 23 23 23 23 23 23 23 23 23 23 23 23 23 23 23 23 23 23 23 23 23 23 23 23 23 23 23 23 23 23 23 23 23 23 23 23 23 23 23 23 23 23 23 23 23 23 23 23 23 23 23 23 23 23 23 23 23 23 23 
23 23 23 23 23 23 23 23 23 23 23 23 23 23 23 23 23 23 23 23 23 23 23 23 23 23 23 23 23 23 23 23 23 23 23 23 23 23 23 23 23 23 23 23 23 23 23 23 23 23 23 23 23 23 23 23 23 23 23 23 23 23 23 23 23 23 23 23 23 23 23 23 23 23 23 23 23 23 23 23 23 23 23 23 23 23 23 23 23 23 23 23 23 23 23 23 23 23 23 23 
23 23 23 23 23 23 23 23 23 23 23 23 23 23 23 23 23 23 23 23 23 23 23 23 23 23 23 23 23 23 23 23 23 23 23 23 23 23 23 23 23 23 23 23 23 23 23 23 23 23 23 23 23 23 23 23 23 23 23 23 23 23 23 23 23 23 23 23 23 23 23 23 23 23 23 23 23 23 23 23 23 23 23 23 23 23 23 23 23 23 23 23 23 23 23 23 23 23 23 23 
23 23 23 23 23 23 23 23 23 23 23 23 23 23 23 23 23 23 23 23 23 23 23 23 23 23 23 23 23 23 23 23 23 23 23 23 23 23 23 23 23 23 23 23 23 23 23 23 23 23 23 23 23 23 23 23 23 23 23 23 23 23 23 23 23 23 23 23 23 23 23 23 23 23 23 23 23 23 23 23 23 23 23 23 23 23 23 23 23 23 23 23 23 23 23 23 23 23 23 23 
23 23 23 23 23 23 23 23 23 23 23 23 23 23 23 23 23 23 23 23 23 23 23 23 23 23 23 23 23 23 23 23 23 23 23 23 23 23 23 23 23 23 23 23 23 23 23 23 23 23 23 23 23 23 23 23 23 23 23 23 23 23 23 23 23 23 23 23 23 23 23 23 23 23 23 23 23 23 23 23 23 23 23 23 23 23 23 23 23 23 23 23 23 23 23 23 23 23 23 23 
23 23 23 23 23 23 23 23 23 23 23 23 23 23 23 23 23 23 23 23 23 23 23 23 23 23 23 23 23 23 23 23 23 23 23 23 23 23 23 23 23 23 23 23 23 23 23 23 23 23 23 23 23 23 23 23 23 23 23 23 23 23 23 23 23 23 23 23 23 23 23 23 23 23 23 23 23 23 23 23 23 23 23 23 23 23 23 23 23 23 23 23 23 23 23 23 23 23 23 23 
23 23 23 23 23 23 23 23 23 23 23 23 23 23 23 23 23 23 23 23 23 23 23 23 23 23 23 23 23 23 23 23 23 23 23 23 23 23 23 23 23 23 23 23 23 23 23 23 23 23 23 23 23 23 23 23 23 23 23 23 23 23 23 23 23 23 23 23 23 23 23 23 23 23 23 23 23 23 23 23 23 23 23 23 23 23 23 23 23 23 23 23 23 23 23 23 23 23 23 23 
23 23 23 23 23 23 23 23 23 23 23 23 23 23 23 23 23 23 23 23 23 23 23 23 23 23 23 23 23 23 23 23 23 23 23 23 23 23 23 23 23 23 23 23 23 23 23 23 23 23 23 23 23 23 23 23 23 23 23 23 23 23 23 23 23 23 23 23 23 23 23 23 23 23 23 23 23 23 23 23 23 23 23 23 23 23 23 23 23 23 23 23 23 23 23 23 23 23 23 23 
23 23 23 23 23 23 23 23 23 23 23 23 23 23 23 23 23 23 23 23 23 23 23 23 23 23 23 23 23 23 23 23 23 23 23 23 23 23 23 23 23 23 23 23 23 23 23 23 23 23 23 23 23 23 23 23 23 23 23 23 23 23 23 23 23 23 23 23 23 23 23 23 23 23 23 23 23 23 23 23 23 23 23 23 23 23 23 23 23 23 23 23 23 23 23 23 23 23 23 23 
23 23 23 23 23 23 23 23 23 23 23 23 23 23 23 23 23 23 23 23 23 23 23 23 23 23 23 23 23 23 23 23 23 23 23 23 23 23 23 23 23 23 23 23 23 23 23 23 23 23 23 23 23 23 23 23 23 23 23 23 23 23 23 23 23 23 23 23 23 23 23 23 23 23 23 23 23 23 23 23 23 23 23 23 23 23 23 23 23 23 23 23 23 23 23 23 23 23 23 23 
23 23 23 23 23 23 23 23 23 23 23 23 23 23 23 23 23 23 23 23 23 23 23 23 23 23 23 23 23 23 23 23 23 23 23 23 23 23 23 23 23 23 23 23 23 23 23 23 23 23 23 23 23 23 23 23 23 23 23 23 23 23 23 23 23 23 23 23 23 23 23 23 23 23 23 23 23 23 23 23 23 23 23 23 23 23 23 23 23 23 23 23 23 23 23 23 23 23 23 23 
23 23 23 23 23 23 23 23 23 23 23 23 23 23 23 23 23 23 23 23 23 23 23 23 23 23 23 23 23 23 23 23 23 23 23 23 23 23 23 23 23 23 23 23 23 23 23 23 23 23 23 23 23 23 23 23 23 23 23 23 23 23 23 23 23 23 23 23 23 23 23 23 23 23 23 23 23 23 23 23 23 23 23 23 23 23 23 23 23 23 23 23 23 23 23 23 23 23 23 23 
23 23 23 23 23 23 23 23 23 23 23 23 23 23 23 23 23 23 23 23 23 23 23 23 23 23 23 23 23 23 23 23 23 23 23 23 23 23 23 23 23 23 23 23 23 23 23 23 23 23 23 23 23 23 23 23 23 23 23 23 23 23 23 23 23 23 23 23 23 23 23 23 23 23 23 23 23 23 23 23 23 23 23 23 23 23 23 23 23 23 23 23 23 23 23 23 23 23 23 23 
23 23 23 23 23 23 23 23 23 23 23 23 23 23 23 23 23 23 23 23 23 23 23 23 23 23 23 23 23 23 23 23 23 23 23 23 23 23 23 23 23 23 23 23 23 23 23 23 23 23 23 23 23 23 23 23 23 23 23 23 23 23 23 23 23 23 23 23 23 23 23 23 23 23 23 23 23 23 23 23 23 23 23 23 23 23 23 23 23 23 23 23 23 23 23 23 23 23 23 23 
23 23 23 23 23 23 23 23 23 23 23 23 23 23 23 23 23 23 23 23 23 23 23 23 23 23 23 23 23 23 23 23 23 23 23 23 23 23 23 23 23 23 23 23 23 23 23 23 23 23 23 23 23 23 23 23 23 23 23 23 23 23 23 23 23 23 23 23 23 23 23 23 23 23 23 23 23 23 23 23 23 23 23 23 23 23 23 23 23 23 23 23 23 23 23 23 23 23 23 23 
23 23 23 23 23 23 23 23 23 23 23 23 23 23 23 23 23 23 23 23 23 23 23 23 23 23 23 23 23 23 23 23 23 23 23 23 23 23 23 23 23 23 23 23 23 23 23 23 23 23 23 23 23 23 23 23 23 23 23 23 23 23 23 23 23 23 23 23 23 23 23 23 23 23 23 23 23 23 23 23 23 23 23 23 23 23 23 23 23 23 23 23 23 23 23 23 23 23 23 23 
23 23 23 23 23 23 23 23 23 23 23 23 23 23 23 23 23 23 23 23 23 23 23 23 23 23 23 23 23 23 23 23 23 23 23 23 23 23 23 23 23 23 23 23 23 23 23 23 23 23 23 23 23 23 23 23 23 23 23 23 23 23 23 23 23 23 23 23 23 23 23 23 23 23 23 23 23 23 23 23 23 23 23 23 23 23 23 23 23 23 23 23 23 23 23 23 23 23 23 23 
23 23 23 23 23 23 23 23 23 23 23 23 23 23 23 23 23 23 23 23 23 23 23 23 23 23 23 23 23 23 23 23 23 23 23 23 23 23 23 23 23 23 23 23 23 23 23 23 23 23 23 23 23 23 23 23 23 23 23 23 23 23 23 23 23 23 23 23 23 23 23 23 23 23 23 23 23 23 23 23 23 23 23 23 23 23 23 23 23 23 23 23 23 23 23 23 23 23 23 23 
23 23 23 23 23 23 23 23 23 23 23 23 23 23 23 23 23 23 23 23 23 23 23 23 23 23 23 23 23 23 23 23 23 23 23 23 23 23 23 23 23 23 23 23 23 23 23 23 23 23 23 23 23 23 23 23 23 23 23 23 23 23 23 23 23 23 23 23 23 23 23 23 23 23 23 23 23 23 23 23 23 23 23 23 23 23 23 23 23 23 23 23 23 23 23 23 23 23 23 23 
23 23 23 23 23 23 23 23 23 23 23 23 23 23 23 23 23 23 23 23 23 23 23 23 23 23 23 23 23 23 23 23 23 23 23 23 23 23 23 23 23 23 23 23 23 23 23 23 23 23 23 23 23 23 23 23 23 23 23 23 23 23 23 23 23 23 23 23 23 23 23 23 23 23 23 23 23 23 23 23 23 23 23 23 23 23 23 23 23 23 23 23 23 23 23 23 23 23 23 23 
23 23 23 23 23 23 23 23 23 23 23 23 23 23 23 23 23 23 23 23 23 23 23 23 23 23 23 23 23 23 23 23 23 23 23 23 23 23 23 23 23 23 23 23 23 23 23 23 23 23 23 23 23 23 23 23 23 23 23 23 23 23 23 23 23 23 23 23 23 23 23 23 23 23 23 23 23 23 23 23 23 23 23 23 23 23 23 23 23 23 23 23 23 23 23 23 23 23 23 23 
23 23 23 23 23 23 23 23 23 23 23 23 23 23 23 23 23 23 23 23 23 23 23 23 23 23 23 23 23 23 23 23 23 23 23 23 23 23 23 23 23 23 23 23 23 23 23 23 23 23 23 23 23 23 23 23 23 23 23 23 23 23 23 23 23 23 23 23 23 23 23 23 23 23 23 23 23 23 23 23 23 23 23 23 23 23 23 23 23 23 23 23 23 23 23 23 23 23 23 23 
23 23 23 23 23 23 23 23 23 23 23 23 23 23 23 23 23 23 23 23 23 23 23 23 23 23 23 23 23 23 23 23 23 23 23 23 23 23 23 23 23 23 23 23 23 23 23 23 23 23 23 23 23 23 23 23 23 23 23 23 23 23 23 23 23 23 23 23 23 23 23 23 23 23 23 23 23 23 23 23 23 23 23 23 23 23 23 23 23 23 23 23 23 23 23 23 23 23 23 23 
23 23 23 23 23 23 23 23 23 23 23 23 23 23 23 23 23 23 23 23 23 23 23 23 23 23 23 23 23 23 23 23 23 23 23 23 23 23 23 23 23 23 23 23 23 23 23 23 23 23 23 23 23 23 23 23 23 23 23 23 23 23 23 23 23 23 23 23 23 23 23 23 23 23 23 23 23 23 23 23 23 23 23 23 23 23 23 23 23 23 23 23 23 23 23 23 23 23 23 23 
23 23 23 23 23 23 23 23 23 23 23 23 23 23 23 23 23 23 23 23 23 23 23 23 23 23 23 23 23 23 23 23 23 23 23 23 23 23 23 23 23 23 23 23 23 23 23 23 23 23 23 23 23 23 23 23 23 23 23 23 23 23 23 23 23 23 23 23 23 23 23 23 23 23 23 23 23 23 23 23 23 23 23 23 23 23 23 23 23 23 23 23 23 23 23 23 23 23 23 23 
23 23 23 23 23 23 23 23 23 23 23 23 23 23 23 23 23 23 23 23 23 23 23 23 23 23 23 23 23 23 23 23 23 23 23 23 23 23 23 23 23 23 23 23 23 23 23 23 23 23 23 23 23 23 23 23 23 23 23 23 23 23 23 23 23 23 23 23 23 23 23 23 23 23 23 23 23 23 23 23 23 23 23 23 23 23 23 23 23 23 23 23 23 23 23 23 23 23 23 23 
23 23 23 23 23 23 23 23 23 23 23 23 23 23 23 23 23 23 23 23 23 23 23 23 23 23 23 23 23 23 23 23 23 23 23 23 23 23 23 23 23 23 23 23 23 23 23 23 23 23 23 23 23 23 23 23 23 23 23 23 23 23 23 23 23 23 23 23 23 23 23 23 23 23 23 23 23 23 23 23 23 23 23 23 23 23 23 23 23 23 23 23 23 23 23 23 23 23 23 23 
23 23 23 23 23 23 23 23 23 23 23 23 23 23 23 23 23 23 23 23 23 23 23 23 23 23 23 23 23 23 23 23 23 23 23 23 23 23 23 23 23 23 23 23 23 23 23 23 23 23 23 23 23 23 23 23 23 23 23 23 23 23 23 23 23 23 23 23 23 23 23 23 23 23 23 23 23 23 23 23 23 23 23 23 23 23 23 23 23 23 23 23 23 23 23 23 23 23 23 23 
23 23 23 23 23 23 23 23 23 23 23 23 23 23 23 23 23 23 23 23 23 23 23 23 23 23 23 23 23 23 23 23 23 23 23 23 23 23 23 23 23 23 23 23 23 23 23 23 23 23 23 23 23 23 23 23 23 23 23 23 23 23 23 23 23 23 23 23 23 23 23 23 23 23 23 23 23 23 23 23 23 23 23 23 23 23 23 23 23 23 23 23 23 23 23 23 23 23 23 23 
23 23 23 23 23 23 23 23 23 23 23 23 23 23 23 23 23 23 23 23 23 23 23 23 23 23 23 23 23 23 23 23 23 23 23 23 23 23 23 23 23 23 23 23 23 23 23 23 23 23 23 23 23 23 23 23 23 23 23 23 23 23 23 23 23 23 23 23 23 23 23 23 23 23 23 23 23 23 23 23 23 23 23 23 23 23 23 23 23 23 23 23 23 23 23 23 23 23 23 23 
23 23 23 23 23 23 23 23 23 23 23 23 23 23 23 23 23 23 23 23 23 23 23 23 23 23 23 23 23 23 23 23 23 23 23 23 23 23 23 23 23 23 23 23 23 23 23 23 23 23 23 23 23 23 23 23 23 23 23 23 23 23 23 23 23 23 23 23 23 23 23 23 23 23 23 23 23 23 23 23 23 23 23 23 23 23 23 23 23 23 23 23 23 23 23 23 23 23 23 23 
23 23 23 23 23 23 23 23 23 23 23 23 23 23 23 23 23 23 23 23 23 23 23 23 23 23 23 23 23 23 23 23 23 23 23 23 23 23 23 23 23 23 23 23 23 23 23 23 23 23 23 23 23 23 23 23 23 23 23 23 23 23 23 23 23 23 23 23 23 23 23 23 23 23 23 23 23 23 23 23 23 23 23 23 23 23 23 23 23 23 23 23 23 23 23 23 23 23 23 23 
23 23 23 23 23 23 23 23 23 23 23 23 23 23 23 23 23 23 23 23 23 23 23 23 23 23 23 23 23 23 23 23 23 23 23 23 23 23 23 23 23 23 23 23 23 23 23 23 23 23 23 23 23 23 23 23 23 23 23 23 23 23 23 23 23 23 23 23 23 23 23 23 23 23 23 23 23 23 23 23 23 23 23 23 23 23 23 23 23 23 23 23 23 23 23 23 23 23 23 23 
23 23 23 23 23 23 23 23 23 23 23 23 23 23 23 23 23 23 23 23 23 23 23 23 23 23 23 23 23 23 23 23 23 23 23 23 23 23 23 23 23 23 23 23 23 23 23 23 23 23 23 23 23 23 23 23 23 23 23 23 23 23 23 23 23 23 23 23 23 23 23 23 23 23 23 23 23 23 23 23 23 23 23 23 23 23 23 23 23 23 23 23 23 23 23 23 23 23 23 23 
23 23 23 23 23 23 23 23 23 23 23 23 23 23 23 23 23 23 23 23 23 23 23 23 23 23 23 23 23 23 23 23 23 23 23 23 23 23 23 23 23 23 23 23 23 23 23 23 23 23 23 23 23 23 23 23 23 23 23 23 23 23 23 23 23 23 23 23 23 23 23 23 23 23 23 23 23 23 23 23 23 23 23 23 23 23 23 23 23 23 23 23 23 23 23 23 23 23 23 23 
23 23 23 23 23 23 23 23 23 23 23 23 23 23 23 23 23 23 23 23 23 23 23 23 23 23 23 23 23 23 23 23 23 23 23 23 23 23 23 23 23 23 23 23 23 23 23 23 23 23 23 23 23 23 23 23 23 23 23 23 23 23 23 23 23 23 23 23 23 23 23 23 23 23 23 23 23 23 23 23 23 23 23 23 23 23 23 23 23 23 23 23 23 23 23 23 23 23 23 23 
23 23 23 23 23 23 23 23 23 23 23 23 23 23 23 23 23 23 23 23 23 23 23 23 23 23 23 23 23 23 23 23 23 23 23 23 23 23 23 23 23 23 23 23 23 23 23 23 23 23 23 23 23 23 23 23 23 23 23 23 23 23 23 23 23 23 23 23 23 23 23 23 23 23 23 23 23 23 23 23 23 23 23 23 23 23 23 23 23 23 23 23 23 23 23 23 23 23 23 23 
23 23 23 23 23 23 23 23 23 23 23 23 23 23 23 23 23 23 23 23 23 23 23 23 23 23 23 23 23 23 23 23 23 23 23 23 23 23 23 23 23 23 23 23 23 23 23 23 23 23 23 23 23 23 23 23 23 23 23 23 23 23 23 23 23 23 23 23 23 23 23 23 23 23 23 23 23 23 23 23 23 23 23 23 23 23 23 23 23 23 23 23 23 23 23 23 23 23 23 23 
23 23 23 23 23 23 23 23 23 23 23 23 23 23 23 23 23 23 23 23 23 23 23 23 23 23 23 23 23 23 23 23 23 23 23 23 23 23 23 23 23 23 23 23 23 23 23 23 23 23 23 23 23 23 23 23 23 23 23 23 23 23 23 23 23 23 23 23 23 23 23 23 23 23 23 23 23 23 23 23 23 23 23 23 23 23 23 23 23 23 23 23 23 23 23 23 23 23 23 23 
